ffmpeg version 4.4.2-0ubuntu0.22.04.1 Copyright (c) 2000-2021 the FFmpeg developers
  built with gcc 11 (Ubuntu 11.2.0-19ubuntu1)
  configuration: --prefix=/usr --extra-version=0ubuntu0.22.04.1 --toolchain=hardened --libdir=/usr/lib/x86_64-linux-gnu --incdir=/usr/include/x86_64-linux-gnu --arch=amd64 --enable-gpl --disable-stripping --enable-gnutls --enable-ladspa --enable-libaom --enable-libass --enable-libbluray --enable-libbs2b --enable-libcaca --enable-libcdio --enable-libcodec2 --enable-libdav1d --enable-libflite --enable-libfontconfig --enable-libfreetype --enable-libfribidi --enable-libgme --enable-libgsm --enable-libjack --enable-libmp3lame --enable-libmysofa --enable-libopenjpeg --enable-libopenmpt --enable-libopus --enable-libpulse --enable-librabbitmq --enable-librubberband --enable-libshine --enable-libsnappy --enable-libsoxr --enable-libspeex --enable-libsrt --enable-libssh --enable-libtheora --enable-libtwolame --enable-libvidstab --enable-libvorbis --enable-libvpx --enable-libwebp --enable-libx265 --enable-libxml2 --enable-libxvid --enable-libzimg --enable-libzmq --enable-libzvbi --enable-lv2 --enable-omx --enable-openal --enable-opencl --enable-opengl --enable-sdl2 --enable-pocketsphinx --enable-librsvg --enable-libmfx --enable-libdc1394 --enable-libdrm --enable-libiec61883 --enable-chromaprint --enable-frei0r --enable-libx264 --enable-shared
  libavutil      56. 70.100 / 56. 70.100
  libavcodec     58.134.100 / 58.134.100
  libavformat    58. 76.100 / 58. 76.100
  libavdevice    58. 13.100 / 58. 13.100
  libavfilter     7.110.100 /  7.110.100
  libswscale      5.  9.100 /  5.  9.100
  libswresample   3.  9.100 /  3.  9.100
  libpostproc    55.  9.100 / 55.  9.100
Input #0, flv, from '/storage/32426326/20250731/32426326-20250731-133126-064.flv':
  Metadata:
    encoder         : obs-output module (libobs version 31.1.2)
    3.1             : false
    displayWidth    : 2560
    audiochannels   : 2
    4.0             : false
    5.1             : false
    4.1             : false
    2.1             : false
    fileSize        : 0
    cdn_ip          : 192.168.252.7
    displayHeight   : 1440
    7.1             : false
    fps             : 60
    Title           : 技术主播没有GG
    Artist          : 蓝音BuBuLine (32426326)
    Comment         : mikufans直播间 32426326 的直播录像
                    : 主播名: 蓝音BuBuLine
                    : 直播标题: 技术主播没有GG
                    : 直播分区: 单机游戏·主机游戏
                    : 录制时间: 2025-07-31T13:31:26.0874500+00:00
                    : 直播服务器:
                    : d1--ov-gotcha07b.bilivideo.com [156.59.188.247]
                    : 
                    : 使用 mikufans录播姬 录制 https://rec.danmuji.org
                    : 录播姬版本: 2.17.3
    RecordedBy      : BililiveRecorder mikufans录播姬
    RecordedFrom    : d1--ov-gotcha07b.bilivideo.com
    StreamServers   : d1--ov-gotcha07b.bilivideo.com [156.59.188.247]
    RecorderVersion : 2.17.3+Branch.tags-v2.17.3.Sha.96407e2eba9a597dd9997c6fb731725f4294a371
    StartTime       : Thu, 31 Jul 2025 13:31:26 +0000
    RoomId          : 32426326
    ShortId         : 0
    Name            : 蓝音BuBuLine
    StreamTitle     : 技术主播没有GG
    AreaNameParent  : 单机游戏
    AreaNameChild   : 主机游戏
  Duration: 06:51:01.29, start: 0.035000, bitrate: 8635 kb/s
  Stream #0:0: Video: h264 (High), yuv420p(tv, bt709, progressive), 2560x1440 [SAR 1:1 DAR 16:9], 10240 kb/s, 60 fps, 60 tbr, 1k tbn, 120 tbc
  Stream #0:1: Audio: aac (LC), 48000 Hz, stereo, fltp, 196 kb/s
Stream mapping:
  Stream #0:0 -> #0:0 (h264 (native) -> png (native))
Press [q] to stop, [?] for help
Output #0, image2, to '/storage/32426326/20250731/32426326-20250731-133126-064.all.thumb.png':
  Metadata:
    AreaNameChild   : 主机游戏
    3.1             : false
    displayWidth    : 2560
    audiochannels   : 2
    4.0             : false
    5.1             : false
    4.1             : false
    2.1             : false
    fileSize        : 0
    cdn_ip          : 192.168.252.7
    displayHeight   : 1440
    7.1             : false
    fps             : 60
    Title           : 技术主播没有GG
    Artist          : 蓝音BuBuLine (32426326)
    Comment         : mikufans直播间 32426326 的直播录像
                    : 主播名: 蓝音BuBuLine
                    : 直播标题: 技术主播没有GG
                    : 直播分区: 单机游戏·主机游戏
                    : 录制时间: 2025-07-31T13:31:26.0874500+00:00
                    : 直播服务器:
                    : d1--ov-gotcha07b.bilivideo.com [156.59.188.247]
                    : 
                    : 使用 mikufans录播姬 录制 https://rec.danmuji.org
                    : 录播姬版本: 2.17.3
    RecordedBy      : BililiveRecorder mikufans录播姬
    RecordedFrom    : d1--ov-gotcha07b.bilivideo.com
    StreamServers   : d1--ov-gotcha07b.bilivideo.com [156.59.188.247]
    RecorderVersion : 2.17.3+Branch.tags-v2.17.3.Sha.96407e2eba9a597dd9997c6fb731725f4294a371
    StartTime       : Thu, 31 Jul 2025 13:31:26 +0000
    RoomId          : 32426326
    ShortId         : 0
    Name            : 蓝音BuBuLine
    StreamTitle     : 技术主播没有GG
    AreaNameParent  : 单机游戏
    encoder         : Lavf58.76.100
  Stream #0:0: Video: png, rgb24(pc, gbr/bt709/bt709, progressive), 2560x1440 [SAR 1:1 DAR 16:9], q=2-31, 200 kb/s, 60 fps, 60 tbn
    Metadata:
      encoder         : Lavc58.134.100 png
frame=    1 fps=0.0 q=0.0 size=N/A time=00:00:00.00 bitrate=N/A speed=   0x    frame=    1 fps=0.0 q=-0.0 Lsize=N/A time=00:00:00.01 bitrate=N/A speed=0.0181x    
video:3889kB audio:0kB subtitle:0kB other streams:0kB global headers:0kB muxing overhead: unknown
ffmpeg version 4.4.2-0ubuntu0.22.04.1 Copyright (c) 2000-2021 the FFmpeg developers
  built with gcc 11 (Ubuntu 11.2.0-19ubuntu1)
  configuration: --prefix=/usr --extra-version=0ubuntu0.22.04.1 --toolchain=hardened --libdir=/usr/lib/x86_64-linux-gnu --incdir=/usr/include/x86_64-linux-gnu --arch=amd64 --enable-gpl --disable-stripping --enable-gnutls --enable-ladspa --enable-libaom --enable-libass --enable-libbluray --enable-libbs2b --enable-libcaca --enable-libcdio --enable-libcodec2 --enable-libdav1d --enable-libflite --enable-libfontconfig --enable-libfreetype --enable-libfribidi --enable-libgme --enable-libgsm --enable-libjack --enable-libmp3lame --enable-libmysofa --enable-libopenjpeg --enable-libopenmpt --enable-libopus --enable-libpulse --enable-librabbitmq --enable-librubberband --enable-libshine --enable-libsnappy --enable-libsoxr --enable-libspeex --enable-libsrt --enable-libssh --enable-libtheora --enable-libtwolame --enable-libvidstab --enable-libvorbis --enable-libvpx --enable-libwebp --enable-libx265 --enable-libxml2 --enable-libxvid --enable-libzimg --enable-libzmq --enable-libzvbi --enable-lv2 --enable-omx --enable-openal --enable-opencl --enable-opengl --enable-sdl2 --enable-pocketsphinx --enable-librsvg --enable-libmfx --enable-libdc1394 --enable-libdrm --enable-libiec61883 --enable-chromaprint --enable-frei0r --enable-libx264 --enable-shared
  libavutil      56. 70.100 / 56. 70.100
  libavcodec     58.134.100 / 58.134.100
  libavformat    58. 76.100 / 58. 76.100
  libavdevice    58. 13.100 / 58. 13.100
  libavfilter     7.110.100 /  7.110.100
  libswscale      5.  9.100 /  5.  9.100
  libswresample   3.  9.100 /  3.  9.100
  libpostproc    55.  9.100 / 55.  9.100
[flv @ 0x5ad991116400] Auto-inserting h264_mp4toannexb bitstream filter
Input #0, concat, from '/storage/32426326/20250731/32426326-20250731-133126-064.all.concat.txt':
  Duration: N/A, start: 0.000000, bitrate: 10436 kb/s
  Stream #0:0: Video: h264 (High), yuv420p(tv, bt709, progressive), 2560x1440 [SAR 1:1 DAR 16:9], 10240 kb/s, 60 fps, 60 tbr, 1k tbn, 120 tbc
  Stream #0:1: Audio: aac (LC), 48000 Hz, stereo, fltp, 196 kb/s
Output #0, flv, to '/storage/32426326/20250731/32426326-20250731-133126-064.all.flv':
  Metadata:
    encoder         : Lavf58.76.100
  Stream #0:0: Video: h264 (High) ([7][0][0][0] / 0x0007), yuv420p(tv, bt709, progressive), 2560x1440 [SAR 1:1 DAR 16:9], q=2-31, 10240 kb/s, 60 fps, 60 tbr, 1k tbn, 1k tbc
  Stream #0:1: Audio: aac (LC) ([10][0][0][0] / 0x000A), 48000 Hz, stereo, fltp, 196 kb/s
Stream mapping:
  Stream #0:0 -> #0:0 (copy)
  Stream #0:1 -> #0:1 (copy)
Press [q] to stop, [?] for help
frame=    1 fps=0.0 q=-1.0 size=       0kB time=00:00:00.00 bitrate=N/A speed=N/A    frame= 6030 fps=0.0 q=-1.0 size=   29696kB time=00:01:40.51 bitrate=2420.2kbits/s speed= 201x    frame= 9681 fps=9678 q=-1.0 size=   60928kB time=00:02:41.30 bitrate=3094.2kbits/s speed= 161x    frame=12164 fps=8107 q=-1.0 size=   95488kB time=00:03:22.69 bitrate=3859.2kbits/s speed= 135x    frame=13919 fps=6957 q=-1.0 size=  130048kB time=00:03:51.93 bitrate=4593.4kbits/s speed= 116x    frame=15575 fps=6228 q=-1.0 size=  164608kB time=00:04:19.50 bitrate=5196.4kbits/s speed= 104x    frame=17595 fps=5862 q=-1.0 size=  197120kB time=00:04:53.13 bitrate=5508.7kbits/s speed=97.7x    frame=19286 fps=5507 q=-1.0 size=  232192kB time=00:05:21.31 bitrate=5919.8kbits/s speed=91.7x    frame=20799 fps=5197 q=-1.0 size=  263680kB time=00:05:46.54 bitrate=6233.1kbits/s speed=86.6x    frame=22353 fps=4965 q=-1.0 size=  295680kB time=00:06:12.41 bitrate=6504.1kbits/s speed=82.7x    frame=23908 fps=4778 q=-1.0 size=  328192kB time=00:06:38.33 bitrate=6749.4kbits/s speed=79.6x    frame=25453 fps=4624 q=-1.0 size=  360192kB time=00:07:04.05 bitrate=6958.4kbits/s speed=  77x    frame=27044 fps=4504 q=-1.0 size=  393472kB time=00:07:30.57 bitrate=7153.8kbits/s speed=  75x    frame=28695 fps=4412 q=-1.0 size=  427776kB time=00:07:58.07 bitrate=7330.1kbits/s speed=73.5x    frame=30358 fps=4334 q=-1.0 size=  462336kB time=00:08:25.75 bitrate=7488.7kbits/s speed=72.2x    frame=32041 fps=4269 q=-1.0 size=  497408kB time=00:08:53.79 bitrate=7633.6kbits/s speed=71.1x    frame=33732 fps=4213 q=-1.0 size=  532480kB time=00:09:21.95 bitrate=7762.3kbits/s speed=70.2x    frame=35410 fps=4163 q=-1.0 size=  567040kB time=00:09:49.91 bitrate=7874.4kbits/s speed=69.4x    frame=37050 fps=4114 q=-1.0 size=  601088kB time=00:10:17.22 bitrate=7977.8kbits/s speed=68.5x    frame=38694 fps=4070 q=-1.0 size=  635392kB time=00:10:44.63 bitrate=8074.6kbits/s speed=67.8x    frame=40338 fps=4031 q=-1.0 size=  669696kB time=00:11:12.01 bitrate=8163.8kbits/s speed=67.2x    frame=42007 fps=3998 q=-1.0 size=  704256kB time=00:11:39.80 bitrate=8244.1kbits/s speed=66.6x    frame=43747 fps=3974 q=-1.0 size=  740352kB time=00:12:08.76 bitrate=8322.3kbits/s speed=66.2x    frame=45338 fps=3940 q=-1.0 size=  773376kB time=00:12:35.27 bitrate=8388.4kbits/s speed=65.6x    frame=46909 fps=3906 q=-1.0 size=  806144kB time=00:13:01.45 bitrate=8450.8kbits/s speed=65.1x    frame=48531 fps=3880 q=-1.0 size=  839936kB time=00:13:28.46 bitrate=8510.9kbits/s speed=64.6x    frame=50061 fps=3848 q=-1.0 size=  871424kB time=00:13:53.96 bitrate=8560.0kbits/s speed=64.1x    frame=51933 fps=3844 q=-1.0 size=  904704kB time=00:14:25.16 bitrate=8566.4kbits/s speed=  64x    frame=53631 fps=3828 q=-1.0 size=  939776kB time=00:14:53.41 bitrate=8617.1kbits/s speed=63.8x    frame=55264 fps=3808 q=-1.0 size=  973568kB time=00:15:20.65 bitrate=8662.9kbits/s speed=63.4x    frame=57472 fps=3828 q=-1.0 size= 1009408kB time=00:15:57.42 bitrate=8636.8kbits/s speed=63.8x    frame=59264 fps=3820 q=-1.0 size= 1046784kB time=00:16:27.27 bitrate=8685.8kbits/s speed=63.6x    frame=60870 fps=3801 q=-1.0 size= 1080320kB time=00:16:54.03 bitrate=8727.5kbits/s speed=63.3x    frame=62577 fps=3789 q=-1.0 size= 1115648kB time=00:17:22.46 bitrate=8767.1kbits/s speed=63.1x    frame=64404 fps=3785 q=-1.0 size= 1153536kB time=00:17:52.91 bitrate=8807.5kbits/s speed=63.1x    frame=65970 fps=3766 q=-1.0 size= 1186048kB time=00:18:18.99 bitrate=8840.9kbits/s speed=62.7x    frame=67616 fps=3753 q=-1.0 size= 1219840kB time=00:18:46.41 bitrate=8871.5kbits/s speed=62.5x    frame=69216 fps=3738 q=-1.0 size= 1253376kB time=00:19:13.05 bitrate=8904.8kbits/s speed=62.3x    frame=70647 fps=3715 q=-1.0 size= 1282816kB time=00:19:36.91 bitrate=8929.1kbits/s speed=61.9x    frame=72206 fps=3700 q=-1.0 size= 1315328kB time=00:20:02.88 bitrate=8957.8kbits/s speed=61.6x    frame=74074 fps=3700 q=-1.0 size= 1348352kB time=00:20:33.98 bitrate=8951.2kbits/s speed=61.6x    frame=75639 fps=3686 q=-1.0 size= 1380864kB time=00:21:00.06 bitrate=8977.4kbits/s speed=61.4x    frame=77810 fps=3702 q=-1.0 size= 1416448kB time=00:21:36.21 bitrate=8951.9kbits/s speed=61.7x    frame=79451 fps=3692 q=-1.0 size= 1450240kB time=00:22:03.53 bitrate=8976.3kbits/s speed=61.5x    frame=81165 fps=3686 q=-1.0 size= 1485824kB time=00:22:32.07 bitrate=9002.3kbits/s speed=61.4x    frame=82857 fps=3679 q=-1.0 size= 1520896kB time=00:23:00.28 bitrate=9026.5kbits/s speed=61.3x    frame=84466 fps=3669 q=-1.0 size= 1554432kB time=00:23:27.08 bitrate=9049.8kbits/s speed=61.1x    frame=86030 fps=3657 q=-1.0 size= 1586944kB time=00:23:53.13 bitrate=9071.2kbits/s speed=60.9x    frame=87592 fps=3646 q=-1.0 size= 1619968kB time=00:24:19.12 bitrate=9095.0kbits/s speed=60.7x    frame=89504 fps=3649 q=-1.0 size= 1654784kB time=00:24:50.95 bitrate=9092.1kbits/s speed=60.8x    frame=91055 fps=3638 q=-1.0 size= 1687040kB time=00:25:16.82 bitrate=9111.3kbits/s speed=60.6x    frame=92768 fps=3634 q=-1.0 size= 1722880kB time=00:25:45.33 bitrate=9133.2kbits/s speed=60.5x    frame=95520 fps=3670 q=-1.0 size= 1757952kB time=00:26:31.18 bitrate=9050.6kbits/s speed=61.1x    frame=97169 fps=3663 q=-1.0 size= 1792000kB time=00:26:58.65 bitrate=9069.3kbits/s speed=  61x    frame=98706 fps=3652 q=-1.0 size= 1824256kB time=00:27:24.26 bitrate=9088.8kbits/s speed=60.8x    frame=100426 fps=3648 q=-1.0 size= 1859840kB time=00:27:52.92 bitrate=9107.3kbits/s speed=60.8x    frame=102013 fps=3639 q=-1.0 size= 1892608kB time=00:28:19.35 bitrate=9123.6kbits/s speed=60.6x    frame=103666 fps=3633 q=-1.0 size= 1927168kB time=00:28:46.86 bitrate=9142.2kbits/s speed=60.5x    frame=105299 fps=3627 q=-1.0 size= 1961216kB time=00:29:14.08 bitrate=9159.4kbits/s speed=60.4x    frame=106785 fps=3616 q=-1.0 size= 1992192kB time=00:29:38.83 bitrate=9174.6kbits/s speed=60.2x    frame=108296 fps=3606 q=-1.0 size= 2023168kB time=00:30:03.93 bitrate=9187.6kbits/s speed=60.1x    frame=109938 fps=3601 q=-1.0 size= 2057472kB time=00:30:31.31 bitrate=9203.7kbits/s speed=  60x    frame=111479 fps=3592 q=-1.0 size= 2089472kB time=00:30:56.99 bitrate=9217.6kbits/s speed=59.8x    frame=113380 fps=3596 q=-1.0 size= 2125056kB time=00:31:28.62 bitrate=9217.5kbits/s speed=59.9x    frame=115133 fps=3594 q=-1.0 size= 2161152kB time=00:31:57.86 bitrate=9231.2kbits/s speed=59.9x    frame=116842 fps=3591 q=-1.0 size= 2196736kB time=00:32:26.32 bitrate=9246.0kbits/s speed=59.8x    frame=118943 fps=3600 q=-1.0 size= 2231552kB time=00:33:01.30 bitrate=9226.7kbits/s speed=  60x    frame=120541 fps=3594 q=-1.0 size= 2264832kB time=00:33:27.93 bitrate=9240.1kbits/s speed=59.9x    frame=122159 fps=3589 q=-1.0 size= 2298112kB time=00:33:54.88 bitrate=9251.7kbits/s speed=59.8x    frame=123835 fps=3585 q=-1.0 size= 2333184kB time=00:34:22.79 bitrate=9265.8kbits/s speed=59.7x    frame=125646 fps=3586 q=-1.0 size= 2370816kB time=00:34:52.95 bitrate=9279.6kbits/s speed=59.7x    frame=127305 fps=3582 q=-1.0 size= 2405376kB time=00:35:20.59 bitrate=9292.1kbits/s speed=59.7x    frame=128950 fps=3578 q=-1.0 size= 2439680kB time=00:35:47.96 bitrate=9304.6kbits/s speed=59.6x    frame=130529 fps=3572 q=-1.0 size= 2472448kB time=00:36:14.29 bitrate=9315.3kbits/s speed=59.5x    frame=132132 fps=3567 q=-1.0 size= 2505472kB time=00:36:40.99 bitrate=9325.2kbits/s speed=59.4x    frame=133995 fps=3569 q=-1.0 size= 2544384kB time=00:37:12.02 bitrate=9338.4kbits/s speed=59.5x    frame=135598 fps=3564 q=-1.0 size= 2577920kB time=00:37:38.71 bitrate=9349.7kbits/s speed=59.4x    frame=137256 fps=3561 q=-1.0 size= 2612224kB time=00:38:06.33 bitrate=9359.7kbits/s speed=59.3x    frame=138975 fps=3560 q=-1.0 size= 2647808kB time=00:38:34.95 bitrate=9369.9kbits/s speed=59.3x    frame=140575 fps=3555 q=-1.0 size= 2680832kB time=00:39:01.60 bitrate=9378.8kbits/s speed=59.2x    frame=142455 fps=3558 q=-1.0 size= 2716160kB time=00:39:32.96 bitrate=9376.8kbits/s speed=59.3x    frame=144096 fps=3554 q=-1.0 size= 2750208kB time=00:40:00.30 bitrate=9386.2kbits/s speed=59.2x    frame=146034 fps=3558 q=-1.0 size= 2781696kB time=00:40:32.58 bitrate=9367.7kbits/s speed=59.3x    frame=147680 fps=3555 q=-1.0 size= 2815744kB time=00:41:00.01 bitrate=9376.6kbits/s speed=59.2x    frame=149387 fps=3553 q=-1.0 size= 2851072kB time=00:41:28.45 bitrate=9385.7kbits/s speed=59.2x    frame=150870 fps=3546 q=-1.0 size= 2882048kB time=00:41:53.13 bitrate=9394.5kbits/s speed=59.1x    frame=152507 fps=3543 q=-1.0 size= 2916096kB time=00:42:20.39 bitrate=9403.5kbits/s speed=  59x    frame=154181 fps=3541 q=-1.0 size= 2950912kB time=00:42:48.31 bitrate=9412.4kbits/s speed=  59x    frame=155690 fps=3535 q=-1.0 size= 2982144kB time=00:43:13.46 bitrate=9419.7kbits/s speed=58.9x    frame=157325 fps=3532 q=-1.0 size= 3016192kB time=00:43:40.69 bitrate=9428.3kbits/s speed=58.8x    frame=158961 fps=3529 q=-1.0 size= 3050240kB time=00:44:07.94 bitrate=9436.6kbits/s speed=58.8x    frame=160598 fps=3526 q=-1.0 size= 3084032kB time=00:44:35.20 bitrate=9443.9kbits/s speed=58.7x    frame=162216 fps=3523 q=-1.0 size= 3117824kB time=00:45:02.15 bitrate=9452.2kbits/s speed=58.7x    frame=163917 fps=3521 q=-1.0 size= 3153152kB time=00:45:30.49 bitrate=9460.1kbits/s speed=58.7x    frame=165521 fps=3518 q=-1.0 size= 3186432kB time=00:45:57.24 bitrate=9467.2kbits/s speed=58.6x    frame=167318 fps=3519 q=-1.0 size= 3223808kB time=00:46:27.16 bitrate=9475.4kbits/s speed=58.6x    frame=168875 fps=3515 q=-1.0 size= 3256320kB time=00:46:53.12 bitrate=9482.6kbits/s speed=58.5x    frame=170584 fps=3514 q=-1.0 size= 3292160kB time=00:47:21.59 bitrate=9490.9kbits/s speed=58.5x    frame=172310 fps=3513 q=-1.0 size= 3327488kB time=00:47:50.31 bitrate=9496.8kbits/s speed=58.5x    frame=174219 fps=3516 q=-1.0 size= 3363072kB time=00:48:22.13 bitrate=9493.1kbits/s speed=58.6x    frame=175904 fps=3514 q=-1.0 size= 3398144kB time=00:48:50.18 bitrate=9500.3kbits/s speed=58.5x    frame=177637 fps=3514 q=-1.0 size= 3433984kB time=00:49:19.04 bitrate=9506.9kbits/s speed=58.5x    frame=179633 fps=3519 q=-1.0 size= 3468544kB time=00:49:52.26 bitrate=9495.9kbits/s speed=58.6x    frame=181174 fps=3514 q=-1.0 size= 3500544kB time=00:50:17.95 bitrate=9502.0kbits/s speed=58.5x    frame=182699 fps=3510 q=-1.0 size= 3532032kB time=00:50:43.37 bitrate=9507.4kbits/s speed=58.5x    frame=184253 fps=3506 q=-1.0 size= 3564544kB time=00:51:09.24 bitrate=9514.0kbits/s speed=58.4x    frame=185841 fps=3503 q=-1.0 size= 3597056kB time=00:51:35.67 bitrate=9518.8kbits/s speed=58.3x    frame=187514 fps=3501 q=-1.0 size= 3631872kB time=00:52:03.53 bitrate=9525.2kbits/s speed=58.3x    frame=189089 fps=3498 q=-1.0 size= 3664640kB time=00:52:29.78 bitrate=9531.0kbits/s speed=58.3x    frame=190724 fps=3496 q=-1.0 size= 3698688kB time=00:52:57.01 bitrate=9537.1kbits/s speed=58.2x    frame=192371 fps=3494 q=-1.0 size= 3732992kB time=00:53:24.46 bitrate=9543.2kbits/s speed=58.2x    frame=194057 fps=3493 q=-1.0 size= 3767808kB time=00:53:52.53 bitrate=9548.5kbits/s speed=58.2x    frame=195625 fps=3490 q=-1.0 size= 3800320kB time=00:54:18.64 bitrate=9553.7kbits/s speed=58.1x    frame=197226 fps=3487 q=-1.0 size= 3833856kB time=00:54:45.31 bitrate=9559.8kbits/s speed=58.1x    frame=198940 fps=3487 q=-1.0 size= 3869696kB time=00:55:13.86 bitrate=9566.0kbits/s speed=58.1x    frame=200623 fps=3485 q=-1.0 size= 3904256kB time=00:55:41.89 bitrate=9570.5kbits/s speed=58.1x    frame=202331 fps=3485 q=-1.0 size= 3939840kB time=00:56:10.35 bitrate=9576.2kbits/s speed=  58x    frame=204060 fps=3485 q=-1.0 size= 3975936kB time=00:56:39.15 bitrate=9582.0kbits/s speed=  58x    frame=205667 fps=3482 q=-1.0 size= 4009216kB time=00:57:05.89 bitrate=9586.8kbits/s speed=  58x    frame=207483 fps=3483 q=-1.0 size= 4043520kB time=00:57:36.14 bitrate=9584.2kbits/s speed=  58x    frame=209216 fps=3483 q=-1.0 size= 4079104kB time=00:58:05.03 bitrate=9588.4kbits/s speed=  58x    frame=211260 fps=3488 q=-1.0 size= 4112896kB time=00:58:39.08 bitrate=9574.3kbits/s speed=58.1x    frame=212900 fps=3486 q=-1.0 size= 4146944kB time=00:59:06.38 bitrate=9579.3kbits/s speed=58.1x    frame=214712 fps=3488 q=-1.0 size= 4184064kB time=00:59:36.57 bitrate=9583.4kbits/s speed=58.1x    frame=216370 fps=3486 q=-1.0 size= 4218880kB time=01:00:04.17 bitrate=9589.2kbits/s speed=58.1x    frame=218052 fps=3485 q=-1.0 size= 4253696kB time=01:00:32.17 bitrate=9593.8kbits/s speed=58.1x    frame=219703 fps=3484 q=-1.0 size= 4288000kB time=01:00:59.66 bitrate=9598.5kbits/s speed=  58x    frame=221353 fps=3482 q=-1.0 size= 4322304kB time=01:01:27.17 bitrate=9603.1kbits/s speed=  58x    frame=222970 fps=3480 q=-1.0 size= 4355840kB time=01:01:54.07 bitrate=9607.5kbits/s speed=  58x    frame=224678 fps=3480 q=-1.0 size= 4391680kB time=01:02:22.55 bitrate=9612.9kbits/s speed=  58x    frame=226438 fps=3480 q=-1.0 size= 4427776kB time=01:02:51.87 bitrate=9616.5kbits/s speed=  58x    frame=227999 fps=3477 q=-1.0 size= 4460032kB time=01:03:17.85 bitrate=9620.3kbits/s speed=57.9x    frame=229694 fps=3477 q=-1.0 size= 4495360kB time=01:03:46.09 bitrate=9625.0kbits/s speed=57.9x    frame=231419 fps=3476 q=-1.0 size= 4531200kB time=01:04:14.81 bitrate=9629.4kbits/s speed=57.9x    frame=233153 fps=3476 q=-1.0 size= 4562944kB time=01:04:43.72 bitrate=9624.7kbits/s speed=57.9x    frame=234907 fps=3476 q=-1.0 size= 4599552kB time=01:05:12.93 bitrate=9629.5kbits/s speed=57.9x    frame=237137 fps=3484 q=-1.0 size= 4635648kB time=01:05:50.06 bitrate=9613.8kbits/s speed=  58x    frame=238721 fps=3481 q=-1.0 size= 4668672kB time=01:06:16.45 bitrate=9618.1kbits/s speed=  58x    frame=240412 fps=3481 q=-1.0 size= 4703744kB time=01:06:44.60 bitrate=9622.2kbits/s speed=  58x    frame=242167 fps=3481 q=-1.0 size= 4740352kB time=01:07:13.81 bitrate=9626.9kbits/s speed=  58x    frame=243711 fps=3478 q=-1.0 size= 4772352kB time=01:07:39.51 bitrate=9630.5kbits/s speed=57.9x    frame=245491 fps=3478 q=-1.0 size= 4809472kB time=01:08:09.20 bitrate=9634.9kbits/s speed=57.9x    frame=247258 fps=3479 q=-1.0 size= 4846080kB time=01:08:38.60 bitrate=9639.0kbits/s speed=57.9x    frame=248927 fps=3478 q=-1.0 size= 4880640kB time=01:09:06.41 bitrate=9642.6kbits/s speed=57.9x    frame=250598 fps=3477 q=-1.0 size= 4915456kB time=01:09:34.25 bitrate=9646.6kbits/s speed=57.9x    frame=252248 fps=3476 q=-1.0 size= 4949760kB time=01:10:01.72 bitrate=9650.4kbits/s speed=57.9x    frame=253876 fps=3474 q=-1.0 size= 4983296kB time=01:10:28.84 bitrate=9653.5kbits/s speed=57.9x    frame=255543 fps=3473 q=-1.0 size= 5018368kB time=01:10:56.58 bitrate=9658.1kbits/s speed=57.9x    frame=257210 fps=3472 q=-1.0 size= 5052672kB time=01:11:24.36 bitrate=9661.1kbits/s speed=57.8x    frame=258980 fps=3473 q=-1.0 size= 5084672kB time=01:11:53.85 bitrate=9655.8kbits/s speed=57.8x    frame=260744 fps=3473 q=-1.0 size= 5121280kB time=01:12:23.22 bitrate=9659.5kbits/s speed=57.8x    frame=262775 fps=3477 q=-1.0 size= 5157376kB time=01:12:57.07 bitrate=9652.4kbits/s speed=57.9x    frame=264333 fps=3474 q=-1.0 size= 5189888kB time=01:13:22.99 bitrate=9656.1kbits/s speed=57.9x    frame=265942 fps=3473 q=-1.0 size= 5223168kB time=01:13:49.81 bitrate=9659.1kbits/s speed=57.8x    frame=267576 fps=3471 q=-1.0 size= 5257216kB time=01:14:17.04 bitrate=9662.7kbits/s speed=57.8x    frame=269358 fps=3472 q=-1.0 size= 5290240kB time=01:14:46.72 bitrate=9659.1kbits/s speed=57.8x    frame=271104 fps=3472 q=-1.0 size= 5326336kB time=01:15:15.81 bitrate=9662.3kbits/s speed=57.8x    frame=272676 fps=3470 q=-1.0 size= 5358848kB time=01:15:42.00 bitrate=9665.3kbits/s speed=57.8x    frame=274675 fps=3473 q=-1.0 size= 5393664kB time=01:16:15.30 bitrate=9657.3kbits/s speed=57.9x    frame=276378 fps=3473 q=-1.0 size= 5428736kB time=01:16:43.64 bitrate=9660.2kbits/s speed=57.8x    frame=277960 fps=3471 q=-1.0 size= 5461760kB time=01:17:10.00 bitrate=9663.7kbits/s speed=57.8x    frame=279616 fps=3470 q=-1.0 size= 5496320kB time=01:17:37.59 bitrate=9667.2kbits/s speed=57.8x    frame=281297 fps=3469 q=-1.0 size= 5531136kB time=01:18:05.55 bitrate=9670.4kbits/s speed=57.8x    frame=282893 fps=3468 q=-1.0 size= 5564160kB time=01:18:32.14 bitrate=9673.2kbits/s speed=57.8x    frame=284512 fps=3466 q=-1.0 size= 5598208kB time=01:18:59.14 bitrate=9677.0kbits/s speed=57.7x    frame=286222 fps=3466 q=-1.0 size= 5633536kB time=01:19:27.61 bitrate=9679.9kbits/s speed=57.7x    frame=287738 fps=3463 q=-1.0 size= 5665024kB time=01:19:52.87 bitrate=9682.7kbits/s speed=57.7x    frame=289416 fps=3463 q=-1.0 size= 5699584kB time=01:20:20.81 bitrate=9685.3kbits/s speed=57.7x    frame=290897 fps=3460 q=-1.0 size= 5730560kB time=01:20:45.48 bitrate=9688.4kbits/s speed=57.6x    frame=292538 fps=3459 q=-1.0 size= 5764608kB time=01:21:12.81 bitrate=9691.3kbits/s speed=57.6x    frame=294040 fps=3456 q=-1.0 size= 5796096kB time=01:21:37.86 bitrate=9694.4kbits/s speed=57.6x    frame=295494 fps=3453 q=-1.0 size= 5826304kB time=01:22:02.08 bitrate=9696.9kbits/s speed=57.5x    frame=297327 fps=3454 q=-1.0 size= 5858304kB time=01:22:32.61 bitrate=9690.1kbits/s speed=57.5x    frame=299118 fps=3455 q=-1.0 size= 5889536kB time=01:23:02.41 bitrate=9683.5kbits/s speed=57.5x    frame=300576 fps=3451 q=-1.0 size= 5920000kB time=01:23:26.69 bitrate=9686.4kbits/s speed=57.5x    frame=302086 fps=3449 q=-1.0 size= 5951232kB time=01:23:51.87 bitrate=9688.7kbits/s speed=57.4x    frame=303553 fps=3446 q=-1.0 size= 5981440kB time=01:24:16.29 bitrate=9690.9kbits/s speed=57.4x    frame=305024 fps=3443 q=-1.0 size= 6012416kB time=01:24:40.80 bitrate=9694.1kbits/s speed=57.4x    frame=306442 fps=3440 q=-1.0 size= 6041600kB time=01:25:04.41 bitrate=9696.1kbits/s speed=57.3x    frame=307931 fps=3437 q=-1.0 size= 6072832kB time=01:25:29.21 bitrate=9699.1kbits/s speed=57.3x    frame=309440 fps=3435 q=-1.0 size= 6104064kB time=01:25:54.35 bitrate=9701.4kbits/s speed=57.2x    frame=310829 fps=3431 q=-1.0 size= 6133248kB time=01:26:17.47 bitrate=9704.3kbits/s speed=57.2x    frame=312314 fps=3429 q=-1.0 size= 6163712kB time=01:26:42.21 bitrate=9706.1kbits/s speed=57.1x    frame=313728 fps=3425 q=-1.0 size= 6193408kB time=01:27:05.78 bitrate=9708.9kbits/s speed=57.1x    frame=315168 fps=3422 q=-1.0 size= 6223104kB time=01:27:29.75 bitrate=9710.9kbits/s speed=  57x    frame=316579 fps=3419 q=-1.0 size= 6252544kB time=01:27:53.25 bitrate=9713.3kbits/s speed=  57x    frame=318022 fps=3416 q=-1.0 size= 6282240kB time=01:28:17.30 bitrate=9715.1kbits/s speed=56.9x    frame=319456 fps=3413 q=-1.0 size= 6312192kB time=01:28:41.18 bitrate=9717.7kbits/s speed=56.9x    frame=320857 fps=3410 q=-1.0 size= 6341120kB time=01:29:04.50 bitrate=9719.6kbits/s speed=56.8x    frame=322364 fps=3408 q=-1.0 size= 6372608kB time=01:29:29.62 bitrate=9722.2kbits/s speed=56.8x    frame=323863 fps=3406 q=-1.0 size= 6403584kB time=01:29:54.58 bitrate=9724.2kbits/s speed=56.7x    frame=325605 fps=3406 q=-1.0 size= 6434304kB time=01:30:23.59 bitrate=9718.6kbits/s speed=56.7x    frame=327040 fps=3403 q=-1.0 size= 6464256kB time=01:30:47.49 bitrate=9721.0kbits/s speed=56.7x    frame=329116 fps=3407 q=-1.0 size= 6494720kB time=01:31:22.07 bitrate=9705.2kbits/s speed=56.8x    frame=330779 fps=3407 q=-1.0 size= 6529280kB time=01:31:49.78 bitrate=9707.8kbits/s speed=56.7x    frame=332426 fps=3406 q=-1.0 size= 6563072kB time=01:32:17.22 bitrate=9709.7kbits/s speed=56.7x    frame=334004 fps=3405 q=-1.0 size= 6596096kB time=01:32:43.51 bitrate=9712.4kbits/s speed=56.7x    frame=335556 fps=3403 q=-1.0 size= 6628352kB time=01:33:09.33 bitrate=9714.8kbits/s speed=56.7x    frame=337147 fps=3402 q=-1.0 size= 6661376kB time=01:33:35.85 bitrate=9717.1kbits/s speed=56.7x    frame=338816 fps=3402 q=-1.0 size= 6696192kB time=01:34:03.63 bitrate=9719.8kbits/s speed=56.7x    frame=340462 fps=3401 q=-1.0 size= 6730240kB time=01:34:31.06 bitrate=9722.0kbits/s speed=56.7x    frame=342111 fps=3401 q=-1.0 size= 6764544kB time=01:34:58.51 bitrate=9724.5kbits/s speed=56.6x    frame=343830 fps=3401 q=-1.0 size= 6800128kB time=01:35:27.16 bitrate=9726.7kbits/s speed=56.6x    frame=345439 fps=3400 q=-1.0 size= 6833664kB time=01:35:53.92 bitrate=9729.2kbits/s speed=56.6x    frame=347112 fps=3400 q=-1.0 size= 6868224kB time=01:36:21.79 bitrate=9731.3kbits/s speed=56.6x    frame=348790 fps=3399 q=-1.0 size= 6903296kB time=01:36:49.73 bitrate=9734.0kbits/s speed=56.6x    frame=350336 fps=3398 q=-1.0 size= 6935552kB time=01:37:15.50 bitrate=9736.3kbits/s speed=56.6x    frame=351917 fps=3397 q=-1.0 size= 6968320kB time=01:37:41.84 bitrate=9738.3kbits/s speed=56.6x    frame=353619 fps=3397 q=-1.0 size= 7003648kB time=01:38:10.22 bitrate=9740.5kbits/s speed=56.6x    frame=355354 fps=3397 q=-1.0 size= 7039488kB time=01:38:39.12 bitrate=9742.6kbits/s speed=56.6x    frame=357044 fps=3397 q=-1.0 size= 7074560kB time=01:39:07.25 bitrate=9744.8kbits/s speed=56.6x    frame=359017 fps=3400 q=-1.0 size= 7110144kB time=01:39:40.10 bitrate=9740.0kbits/s speed=56.6x    frame=360552 fps=3398 q=-1.0 size= 7141888kB time=01:40:05.66 bitrate=9741.9kbits/s speed=56.6x    frame=362661 fps=3402 q=-1.0 size= 7177728kB time=01:40:40.78 bitrate=9733.8kbits/s speed=56.7x    frame=364343 fps=3402 q=-1.0 size= 7212288kB time=01:41:08.80 bitrate=9735.5kbits/s speed=56.7x    frame=365850 fps=3400 q=-1.0 size= 7243520kB time=01:41:33.89 bitrate=9737.4kbits/s speed=56.6x    frame=367557 fps=3400 q=-1.0 size= 7279104kB time=01:42:02.32 bitrate=9739.8kbits/s speed=56.6x    frame=369129 fps=3399 q=-1.0 size= 7311616kB time=01:42:28.48 bitrate=9741.7kbits/s speed=56.6x    frame=370812 fps=3399 q=-1.0 size= 7346688kB time=01:42:56.50 bitrate=9744.0kbits/s speed=56.6x    frame=372494 fps=3398 q=-1.0 size= 7381760kB time=01:43:24.51 bitrate=9746.3kbits/s speed=56.6x    frame=374180 fps=3398 q=-1.0 size= 7416832kB time=01:43:52.55 bitrate=9748.6kbits/s speed=56.6x    frame=375885 fps=3398 q=-1.0 size= 7452160kB time=01:44:20.96 bitrate=9750.6kbits/s speed=56.6x    frame=377532 fps=3398 q=-1.0 size= 7486464kB time=01:44:48.40 bitrate=9752.7kbits/s speed=56.6x    frame=379137 fps=3397 q=-1.0 size= 7520000kB time=01:45:15.13 bitrate=9755.0kbits/s speed=56.6x    frame=380773 fps=3396 q=-1.0 size= 7554048kB time=01:45:42.38 bitrate=9757.0kbits/s speed=56.6x    frame=382417 fps=3396 q=-1.0 size= 7588096kB time=01:46:09.75 bitrate=9758.9kbits/s speed=56.6x    frame=384049 fps=3395 q=-1.0 size= 7621888kB time=01:46:36.90 bitrate=9760.7kbits/s speed=56.6x    frame=385728 fps=3395 q=-1.0 size= 7656704kB time=01:47:04.89 bitrate=9762.6kbits/s speed=56.6x    frame=387382 fps=3395 q=-1.0 size= 7691008kB time=01:47:32.43 bitrate=9764.5kbits/s speed=56.5x    frame=388826 fps=3393 q=-1.0 size= 7720960kB time=01:47:56.49 bitrate=9766.1kbits/s speed=56.5x    frame=390482 fps=3392 q=-1.0 size= 7755520kB time=01:48:24.06 bitrate=9768.2kbits/s speed=56.5x    frame=392038 fps=3391 q=-1.0 size= 7787776kB time=01:48:50.01 bitrate=9769.9kbits/s speed=56.5x    frame=393595 fps=3390 q=-1.0 size= 7820288kB time=01:49:15.93 bitrate=9771.9kbits/s speed=56.5x    frame=395261 fps=3389 q=-1.0 size= 7854848kB time=01:49:43.66 bitrate=9773.7kbits/s speed=56.5x    frame=397070 fps=3390 q=-1.0 size= 7886592kB time=01:50:13.81 bitrate=9768.5kbits/s speed=56.5x    frame=398701 fps=3390 q=-1.0 size= 7920128kB time=01:50:40.94 bitrate=9770.0kbits/s speed=56.5x    frame=400294 fps=3389 q=-1.0 size= 7953152kB time=01:51:07.51 bitrate=9771.6kbits/s speed=56.4x    frame=402364 fps=3392 q=-1.0 size= 7986432kB time=01:51:41.99 bitrate=9762.0kbits/s speed=56.5x    frame=404046 fps=3392 q=-1.0 size= 8021504kB time=01:52:09.99 bitrate=9764.1kbits/s speed=56.5x    frame=405682 fps=3392 q=-1.0 size= 8055808kB time=01:52:37.26 bitrate=9766.3kbits/s speed=56.5x    frame=407286 fps=3391 q=-1.0 size= 8089088kB time=01:53:03.96 bitrate=9768.0kbits/s speed=56.5x    frame=408850 fps=3390 q=-1.0 size= 8121344kB time=01:53:30.04 bitrate=9769.4kbits/s speed=56.5x    frame=410525 fps=3389 q=-1.0 size= 8156160kB time=01:53:57.96 bitrate=9771.2kbits/s speed=56.5x    frame=412069 fps=3388 q=-1.0 size= 8188160kB time=01:54:23.67 bitrate=9772.8kbits/s speed=56.4x    frame=413853 fps=3389 q=-1.0 size= 8225536kB time=01:54:53.39 bitrate=9775.1kbits/s speed=56.4x    frame=415542 fps=3389 q=-1.0 size= 8260608kB time=01:55:21.51 bitrate=9776.9kbits/s speed=56.4x    frame=417046 fps=3387 q=-1.0 size= 8291584kB time=01:55:46.56 bitrate=9778.2kbits/s speed=56.4x    frame=418592 fps=3386 q=-1.0 size= 8323584kB time=01:56:12.33 bitrate=9779.6kbits/s speed=56.4x    frame=420170 fps=3385 q=-1.0 size= 8356608kB time=01:56:38.62 bitrate=9781.5kbits/s speed=56.4x    frame=421931 fps=3386 q=-1.0 size= 8393216kB time=01:57:07.96 bitrate=9783.4kbits/s speed=56.4x    frame=423580 fps=3385 q=-1.0 size= 8427520kB time=01:57:35.42 bitrate=9785.1kbits/s speed=56.4x    frame=425165 fps=3384 q=-1.0 size= 8460288kB time=01:58:01.80 bitrate=9786.6kbits/s speed=56.4x    frame=426875 fps=3385 q=-1.0 size= 8495872kB time=01:58:30.29 bitrate=9788.4kbits/s speed=56.4x    frame=428523 fps=3384 q=-1.0 size= 8530176kB time=01:58:57.76 bitrate=9790.1kbits/s speed=56.4x    frame=430038 fps=3383 q=-1.0 size= 8561664kB time=01:59:22.99 bitrate=9791.6kbits/s speed=56.3x    frame=431787 fps=3383 q=-1.0 size= 8598016kB time=01:59:52.15 bitrate=9793.3kbits/s speed=56.4x    frame=433439 fps=3383 q=-1.0 size= 8630784kB time=02:00:19.65 bitrate=9793.2kbits/s speed=56.3x    frame=435359 fps=3385 q=-1.0 size= 8666368kB time=02:00:51.63 bitrate=9790.2kbits/s speed=56.4x    frame=437042 fps=3385 q=-1.0 size= 8701440kB time=02:01:19.67 bitrate=9792.0kbits/s speed=56.4x    frame=439139 fps=3388 q=-1.0 size= 8734976kB time=02:01:54.56 bitrate=9782.8kbits/s speed=56.4x    frame=440948 fps=3389 q=-1.0 size= 8772352kB time=02:02:24.72 bitrate=9784.3kbits/s speed=56.4x    frame=442696 fps=3389 q=-1.0 size= 8808704kB time=02:02:53.78 bitrate=9786.1kbits/s speed=56.4x    frame=444671 fps=3391 q=-1.0 size= 8844800kB time=02:03:26.66 bitrate=9782.6kbits/s speed=56.5x    frame=446500 fps=3392 q=-1.0 size= 8882688kB time=02:03:57.12 bitrate=9784.3kbits/s speed=56.5x    frame=448778 fps=3397 q=-1.0 size= 8921600kB time=02:04:35.09 bitrate=9777.2kbits/s speed=56.6x    frame=450327 fps=3395 q=-1.0 size= 8953600kB time=02:05:00.89 bitrate=9778.6kbits/s speed=56.6x    frame=451863 fps=3394 q=-1.0 size= 8985344kB time=02:05:26.44 bitrate=9779.9kbits/s speed=56.5x    frame=453503 fps=3394 q=-1.0 size= 9019392kB time=02:05:53.78 bitrate=9781.4kbits/s speed=56.5x    frame=455295 fps=3394 q=-1.0 size= 9056768kB time=02:06:23.63 bitrate=9783.3kbits/s speed=56.5x    frame=456855 fps=3393 q=-1.0 size= 9088768kB time=02:06:49.62 bitrate=9784.3kbits/s speed=56.5x    frame=458934 fps=3396 q=-1.0 size= 9126144kB time=02:07:24.23 bitrate=9780.1kbits/s speed=56.6x    frame=460765 fps=3397 q=-1.0 size= 9164032kB time=02:07:54.72 bitrate=9781.7kbits/s speed=56.6x    frame=462680 fps=3399 q=-1.0 size= 9197568kB time=02:08:26.62 bitrate=9776.8kbits/s speed=56.6x    frame=464381 fps=3399 q=-1.0 size= 9232896kB time=02:08:54.94 bitrate=9778.5kbits/s speed=56.6x    frame=466067 fps=3399 q=-1.0 size= 9267968kB time=02:09:23.03 bitrate=9780.1kbits/s speed=56.6x    frame=467675 fps=3398 q=-1.0 size= 9301248kB time=02:09:49.79 bitrate=9781.5kbits/s speed=56.6x    frame=469293 fps=3397 q=-1.0 size= 9335040kB time=02:10:16.72 bitrate=9783.2kbits/s speed=56.6x    frame=470991 fps=3397 q=-1.0 size= 9370368kB time=02:10:45.03 bitrate=9784.8kbits/s speed=56.6x    frame=472696 fps=3397 q=-1.0 size= 9405696kB time=02:11:13.42 bitrate=9786.3kbits/s speed=56.6x    frame=474399 fps=3397 q=-1.0 size= 9441024kB time=02:11:41.79 bitrate=9787.8kbits/s speed=56.6x    frame=476065 fps=3397 q=-1.0 size= 9475840kB time=02:12:09.57 bitrate=9789.4kbits/s speed=56.6x    frame=477588 fps=3396 q=-1.0 size= 9507328kB time=02:12:34.95 bitrate=9790.6kbits/s speed=56.6x    frame=479634 fps=3398 q=-1.0 size= 9544704kB time=02:13:09.01 bitrate=9787.2kbits/s speed=56.6x    frame=481667 fps=3401 q=-1.0 size= 9582336kB time=02:13:42.84 bitrate=9784.4kbits/s speed=56.6x    frame=483403 fps=3401 q=-1.0 size= 9617920kB time=02:14:11.80 bitrate=9785.4kbits/s speed=56.6x    frame=485114 fps=3401 q=-1.0 size= 9653504kB time=02:14:40.25 bitrate=9787.0kbits/s speed=56.6x    frame=486859 fps=3401 q=-1.0 size= 9689600kB time=02:15:09.36 bitrate=9788.3kbits/s speed=56.7x    frame=488394 fps=3400 q=-1.0 size= 9721856kB time=02:15:34.93 bitrate=9790.1kbits/s speed=56.6x    frame=490112 fps=3400 q=-1.0 size= 9757440kB time=02:16:03.54 bitrate=9791.4kbits/s speed=56.6x    frame=491852 fps=3401 q=-1.0 size= 9793280kB time=02:16:32.51 bitrate=9792.7kbits/s speed=56.6x    frame=493297 fps=3399 q=-1.0 size= 9823744kB time=02:16:56.58 bitrate=9794.4kbits/s speed=56.6x    frame=494972 fps=3399 q=-1.0 size= 9858560kB time=02:17:24.51 bitrate=9795.8kbits/s speed=56.6x    frame=496705 fps=3399 q=-1.0 size= 9894400kB time=02:17:53.38 bitrate=9797.1kbits/s speed=56.6x    frame=498359 fps=3398 q=-1.0 size= 9928704kB time=02:18:20.93 bitrate=9798.4kbits/s speed=56.6x    frame=500067 fps=3399 q=-1.0 size= 9964288kB time=02:18:49.37 bitrate=9800.0kbits/s speed=56.6x    frame=501793 fps=3399 q=-1.0 size=10000128kB time=02:19:18.16 bitrate=9801.3kbits/s speed=56.6x    frame=503418 fps=3398 q=-1.0 size=10033920kB time=02:19:45.20 bitrate=9802.7kbits/s speed=56.6x    frame=505158 fps=3398 q=-1.0 size=10069760kB time=02:20:14.22 bitrate=9803.8kbits/s speed=56.6x    frame=506907 fps=3399 q=-1.0 size=10106368kB time=02:20:43.34 bitrate=9805.5kbits/s speed=56.6x    frame=508818 fps=3400 q=-1.0 size=10140672kB time=02:21:15.17 bitrate=9801.9kbits/s speed=56.6x    frame=510559 fps=3400 q=-1.0 size=10176768kB time=02:21:44.16 bitrate=9803.2kbits/s speed=56.6x    frame=512466 fps=3402 q=-1.0 size=10210816kB time=02:22:15.93 bitrate=9799.4kbits/s speed=56.7x    frame=513994 fps=3401 q=-1.0 size=10242560kB time=02:22:41.38 bitrate=9800.6kbits/s speed=56.6x    frame=515683 fps=3401 q=-1.0 size=10277632kB time=02:23:09.49 bitrate=9802.0kbits/s speed=56.6x    frame=517316 fps=3400 q=-1.0 size=10311680kB time=02:23:36.67 bitrate=9803.5kbits/s speed=56.6x    frame=518993 fps=3400 q=-1.0 size=10346496kB time=02:24:04.63 bitrate=9804.7kbits/s speed=56.6x    frame=520737 fps=3400 q=-1.0 size=10382592kB time=02:24:33.70 bitrate=9806.0kbits/s speed=56.6x    frame=522322 fps=3399 q=-1.0 size=10415616kB time=02:25:00.11 bitrate=9807.3kbits/s speed=56.6x    frame=523958 fps=3399 q=-1.0 size=10449664kB time=02:25:27.34 bitrate=9808.7kbits/s speed=56.6x    frame=525475 fps=3398 q=-1.0 size=10481408kB time=02:25:52.59 bitrate=9810.1kbits/s speed=56.6x    frame=527159 fps=3398 q=-1.0 size=10516224kB time=02:26:20.67 bitrate=9811.2kbits/s speed=56.6x    frame=528662 fps=3397 q=-1.0 size=10547200kB time=02:26:45.67 bitrate=9812.2kbits/s speed=56.6x    frame=530573 fps=3398 q=-1.0 size=10581760kB time=02:27:17.51 bitrate=9808.8kbits/s speed=56.6x    frame=532370 fps=3398 q=-1.0 size=10618624kB time=02:27:47.46 bitrate=9809.8kbits/s speed=56.6x    frame=534458 fps=3401 q=-1.0 size=10653696kB time=02:28:22.23 bitrate=9803.7kbits/s speed=56.6x    frame=536023 fps=3400 q=-1.0 size=10685952kB time=02:28:48.32 bitrate=9804.7kbits/s speed=56.6x    frame=537553 fps=3399 q=-1.0 size=10717696kB time=02:29:13.81 bitrate=9805.8kbits/s speed=56.6x    frame=539290 fps=3399 q=-1.0 size=10754048kB time=02:29:42.71 bitrate=9807.4kbits/s speed=56.6x    frame=541018 fps=3399 q=-1.0 size=10789632kB time=02:30:11.50 bitrate=9808.4kbits/s speed=56.6x    frame=542564 fps=3398 q=-1.0 size=10822144kB time=02:30:37.23 bitrate=9810.0kbits/s speed=56.6x    frame=544251 fps=3398 q=-1.0 size=10857216kB time=02:31:05.34 bitrate=9811.2kbits/s speed=56.6x    frame=545873 fps=3398 q=-1.0 size=10891008kB time=02:31:32.33 bitrate=9812.6kbits/s speed=56.6x    frame=547407 fps=3397 q=-1.0 size=10922752kB time=02:31:57.89 bitrate=9813.6kbits/s speed=56.6x    frame=549171 fps=3397 q=-1.0 size=10959104kB time=02:32:27.27 bitrate=9814.6kbits/s speed=56.6x    frame=550748 fps=3396 q=-1.0 size=10992128kB time=02:32:53.54 bitrate=9816.0kbits/s speed=56.6x    frame=552342 fps=3396 q=-1.0 size=11025152kB time=02:33:20.07 bitrate=9817.1kbits/s speed=56.6x    frame=553829 fps=3395 q=-1.0 size=11056384kB time=02:33:44.84 bitrate=9818.5kbits/s speed=56.5x    frame=555612 fps=3395 q=-1.0 size=11092992kB time=02:34:14.53 bitrate=9819.4kbits/s speed=56.5x    frame=557417 fps=3396 q=-1.0 size=11130880kB time=02:34:44.56 bitrate=9821.0kbits/s speed=56.6x    frame=559000 fps=3395 q=-1.0 size=11163648kB time=02:35:10.96 bitrate=9822.0kbits/s speed=56.5x    frame=560822 fps=3396 q=-1.0 size=11201536kB time=02:35:41.31 bitrate=9823.4kbits/s speed=56.6x    frame=562577 fps=3396 q=-1.0 size=11237888kB time=02:36:10.51 bitrate=9824.5kbits/s speed=56.6x    frame=564529 fps=3398 q=-1.0 size=11272960kB time=02:36:43.04 bitrate=9821.1kbits/s speed=56.6x    frame=566194 fps=3397 q=-1.0 size=11307520kB time=02:37:10.77 bitrate=9822.2kbits/s speed=56.6x    frame=568323 fps=3400 q=-1.0 size=11343360kB time=02:37:46.22 bitrate=9816.5kbits/s speed=56.6x    frame=569878 fps=3399 q=-1.0 size=11375104kB time=02:38:12.12 bitrate=9817.1kbits/s speed=56.6x    frame=571540 fps=3399 q=-1.0 size=11409664kB time=02:38:39.81 bitrate=9818.3kbits/s speed=56.6x    frame=573123 fps=3398 q=-1.0 size=11442688kB time=02:39:06.17 bitrate=9819.5kbits/s speed=56.6x    frame=574674 fps=3397 q=-1.0 size=11474688kB time=02:39:32.00 bitrate=9820.4kbits/s speed=56.6x    frame=576360 fps=3397 q=-1.0 size=11509504kB time=02:40:00.09 bitrate=9821.3kbits/s speed=56.6x    frame=577965 fps=3397 q=-1.0 size=11542784kB time=02:40:26.83 bitrate=9822.4kbits/s speed=56.6x    frame=579807 fps=3397 q=-1.0 size=11575552kB time=02:40:57.52 bitrate=9819.0kbits/s speed=56.6x    frame=581572 fps=3398 q=-1.0 size=11611904kB time=02:41:26.95 bitrate=9819.9kbits/s speed=56.6x    frame=583336 fps=3398 q=-1.0 size=11643136kB time=02:41:56.33 bitrate=9816.5kbits/s speed=56.6x    frame=584788 fps=3397 q=-1.0 size=11673088kB time=02:42:20.53 bitrate=9817.3kbits/s speed=56.6x    frame=586245 fps=3395 q=-1.0 size=11703552kB time=02:42:44.80 bitrate=9818.5kbits/s speed=56.6x    frame=587968 fps=3395 q=-1.0 size=11739648kB time=02:43:13.51 bitrate=9819.9kbits/s speed=56.6x    frame=592348 fps=3411 q=-1.0 size=11776512kB time=02:44:26.48 bitrate=9777.9kbits/s speed=56.8x    frame=595277 fps=3418 q=-1.0 size=11812352kB time=02:45:15.28 bitrate=9759.4kbits/s speed=56.9x    frame=597800 fps=3423 q=-1.0 size=11845120kB time=02:45:57.27 bitrate=9745.2kbits/s speed=  57x    frame=600134 fps=3426 q=-1.0 size=11881984kB time=02:46:36.19 bitrate=9737.4kbits/s speed=57.1x    frame=602324 fps=3429 q=-1.0 size=11916032kB time=02:47:12.67 bitrate=9729.8kbits/s speed=57.1x    frame=604758 fps=3433 q=-1.0 size=11954432kB time=02:47:53.18 bitrate=9721.9kbits/s speed=57.2x    frame=606911 fps=3435 q=-1.0 size=11990784kB time=02:48:29.05 bitrate=9716.9kbits/s speed=57.2x    frame=609426 fps=3440 q=-1.0 size=12027136kB time=02:49:10.97 bitrate=9706.1kbits/s speed=57.3x    frame=611185 fps=3440 q=-1.0 size=12061440kB time=02:49:40.25 bitrate=9705.8kbits/s speed=57.3x    frame=613201 fps=3442 q=-1.0 size=12100096kB time=02:50:13.83 bitrate=9704.9kbits/s speed=57.3x    frame=614968 fps=3442 q=-1.0 size=12134144kB time=02:50:43.29 bitrate=9704.2kbits/s speed=57.3x    frame=616966 fps=3443 q=-1.0 size=12171776kB time=02:51:16.58 bitrate=9702.8kbits/s speed=57.4x    frame=618958 fps=3445 q=-1.0 size=12210688kB time=02:51:49.77 bitrate=9702.4kbits/s speed=57.4x    frame=621775 fps=3451 q=-1.0 size=12244992kB time=02:52:36.71 bitrate=9685.6kbits/s speed=57.5x    frame=624001 fps=3454 q=-1.0 size=12278016kB time=02:53:13.81 bitrate=9677.1kbits/s speed=57.5x    frame=625759 fps=3454 q=-1.0 size=12311808kB time=02:53:43.08 bitrate=9676.4kbits/s speed=57.5x    frame=627630 fps=3455 q=-1.0 size=12345088kB time=02:54:14.25 bitrate=9673.7kbits/s speed=57.5x    frame=630747 fps=3462 q=-1.0 size=12378368kB time=02:55:06.17 bitrate=9651.8kbits/s speed=57.7x    frame=633033 fps=3465 q=-1.0 size=12412672kB time=02:55:44.27 bitrate=9643.6kbits/s speed=57.7x    frame=635461 fps=3469 q=-1.0 size=12444928kB time=02:56:24.72 bitrate=9631.7kbits/s speed=57.8x    frame=637276 fps=3470 q=-1.0 size=12479232kB time=02:56:54.95 bitrate=9630.7kbits/s speed=57.8x    frame=639840 fps=3474 q=-1.0 size=12513024kB time=02:57:37.66 bitrate=9618.1kbits/s speed=57.9x    frame=641426 fps=3473 q=-1.0 size=12546048kB time=02:58:04.07 bitrate=9619.7kbits/s speed=57.9x    frame=643314 fps=3474 q=-1.0 size=12582912kB time=02:58:35.52 bitrate=9619.6kbits/s speed=57.9x    frame=645315 fps=3475 q=-1.0 size=12620032kB time=02:59:08.82 bitrate=9618.1kbits/s speed=57.9x    frame=646932 fps=3475 q=-1.0 size=12652288kB time=02:59:35.79 bitrate=9618.6kbits/s speed=57.9x    frame=648733 fps=3475 q=-1.0 size=12686848kB time=03:00:05.79 bitrate=9618.1kbits/s speed=57.9x    frame=650557 fps=3476 q=-1.0 size=12721408kB time=03:00:36.17 bitrate=9617.2kbits/s speed=57.9x    frame=652232 fps=3475 q=-1.0 size=12755712kB time=03:01:04.04 bitrate=9618.4kbits/s speed=57.9x    frame=654851 fps=3480 q=-1.0 size=12788992kB time=03:01:47.65 bitrate=9604.9kbits/s speed=  58x    frame=657713 fps=3486 q=-1.0 size=12823808kB time=03:02:35.33 bitrate=9589.2kbits/s speed=58.1x    frame=660598 fps=3492 q=-1.0 size=12855552kB time=03:03:23.41 bitrate=9570.9kbits/s speed=58.2x    frame=663686 fps=3499 q=-1.0 size=12890880kB time=03:04:14.86 bitrate=9552.5kbits/s speed=58.3x    frame=665691 fps=3500 q=-1.0 size=12922624kB time=03:04:48.26 bitrate=9547.2kbits/s speed=58.3x    frame=668092 fps=3504 q=-1.0 size=12957696kB time=03:05:28.26 bitrate=9538.7kbits/s speed=58.4x    frame=670333 fps=3506 q=-1.0 size=12992000kB time=03:06:05.60 bitrate=9532.0kbits/s speed=58.4x    frame=672616 fps=3509 q=-1.0 size=13025280kB time=03:06:43.60 bitrate=9524.0kbits/s speed=58.4x    frame=674879 fps=3512 q=-1.0 size=13058560kB time=03:07:21.32 bitrate=9516.3kbits/s speed=58.5x    frame=677032 fps=3514 q=-1.0 size=13088768kB time=03:07:57.17 bitrate=9508.0kbits/s speed=58.5x    frame=679848 fps=3519 q=-1.0 size=13121280kB time=03:08:44.11 bitrate=9492.1kbits/s speed=58.6x    frame=682129 fps=3522 q=-1.0 size=13155072kB time=03:09:22.11 bitrate=9484.7kbits/s speed=58.7x    frame=683954 fps=3522 q=-1.0 size=13188352kB time=03:09:52.53 bitrate=9483.3kbits/s speed=58.7x    frame=686612 fps=3527 q=-1.0 size=13222912kB time=03:10:36.81 bitrate=9471.4kbits/s speed=58.7x    frame=688579 fps=3528 q=-1.0 size=13255424kB time=03:11:09.57 bitrate=9467.5kbits/s speed=58.8x    frame=690670 fps=3529 q=-1.0 size=13291264kB time=03:11:44.41 bitrate=9464.4kbits/s speed=58.8x    frame=692540 fps=3530 q=-1.0 size=13325056kB time=03:12:15.56 bitrate=9462.8kbits/s speed=58.8x    frame=694737 fps=3532 q=-1.0 size=13360384kB time=03:12:52.13 bitrate=9457.9kbits/s speed=58.8x    frame=697208 fps=3536 q=-1.0 size=13394944kB time=03:13:33.32 bitrate=9448.8kbits/s speed=58.9x    frame=699727 fps=3539 q=-1.0 size=13427200kB time=03:14:15.27 bitrate=9437.4kbits/s speed=  59x    frame=701629 fps=3540 q=-1.0 size=13460224kB time=03:14:46.95 bitrate=9435.0kbits/s speed=  59x    frame=703595 fps=3541 q=-1.0 size=13494784kB time=03:15:19.68 bitrate=9432.8kbits/s speed=  59x    frame=705514 fps=3542 q=-1.0 size=13527040kB time=03:15:51.64 bitrate=9429.6kbits/s speed=  59x    frame=707386 fps=3542 q=-1.0 size=13561856kB time=03:16:22.78 bitrate=9428.9kbits/s speed=  59x    frame=709902 fps=3546 q=-1.0 size=13595904kB time=03:17:04.69 bitrate=9419.1kbits/s speed=59.1x    frame=711620 fps=3546 q=-1.0 size=13628928kB time=03:17:33.32 bitrate=9419.1kbits/s speed=59.1x    frame=714071 fps=3549 q=-1.0 size=13660160kB time=03:18:14.14 bitrate=9408.3kbits/s speed=59.1x    frame=716105 fps=3550 q=-1.0 size=13695744kB time=03:18:48.05 bitrate=9406.0kbits/s speed=59.1x    frame=717934 fps=3551 q=-1.0 size=13726976kB time=03:19:18.51 bitrate=9403.5kbits/s speed=59.1x    frame=720067 fps=3552 q=-1.0 size=13762304kB time=03:19:54.04 bitrate=9399.7kbits/s speed=59.2x    frame=723035 fps=3558 q=-1.0 size=13797376kB time=03:20:43.49 bitrate=9385.0kbits/s speed=59.3x    frame=724833 fps=3558 q=-1.0 size=13830656kB time=03:21:13.46 bitrate=9384.3kbits/s speed=59.3x    frame=726792 fps=3559 q=-1.0 size=13868288kB time=03:21:46.05 bitrate=9384.5kbits/s speed=59.3x    frame=728760 fps=3560 q=-1.0 size=13904128kB time=03:22:18.87 bitrate=9383.3kbits/s speed=59.3x    frame=731665 fps=3566 q=-1.0 size=13938688kB time=03:23:07.22 bitrate=9369.3kbits/s speed=59.4x    frame=733800 fps=3567 q=-1.0 size=13975296kB time=03:23:42.78 bitrate=9366.6kbits/s speed=59.4x    frame=736252 fps=3571 q=-1.0 size=14010880kB time=03:24:23.65 bitrate=9359.1kbits/s speed=59.5x    frame=738477 fps=3573 q=-1.0 size=14044416kB time=03:25:00.72 bitrate=9353.3kbits/s speed=59.5x    frame=741501 fps=3579 q=-1.0 size=14081280kB time=03:25:51.08 bitrate=9339.6kbits/s speed=59.6x    frame=743621 fps=3580 q=-1.0 size=14116352kB time=03:26:26.42 bitrate=9336.1kbits/s speed=59.6x    frame=746230 fps=3584 q=-1.0 size=14150144kB time=03:27:09.89 bitrate=9325.7kbits/s speed=59.7x    frame=748356 fps=3586 q=-1.0 size=14187264kB time=03:27:45.29 bitrate=9323.6kbits/s speed=59.7x    frame=750225 fps=3586 q=-1.0 size=14223872kB time=03:28:16.38 bitrate=9324.5kbits/s speed=59.7x    frame=752191 fps=3587 q=-1.0 size=14260736kB time=03:28:49.17 bitrate=9324.2kbits/s speed=59.7x    frame=754088 fps=3587 q=-1.0 size=14298112kB time=03:29:20.75 bitrate=9325.1kbits/s speed=59.8x    frame=755977 fps=3588 q=-1.0 size=14333440kB time=03:29:52.25 bitrate=9324.7kbits/s speed=59.8x    frame=758208 fps=3590 q=-1.0 size=14370816kB time=03:30:29.39 bitrate=9321.6kbits/s speed=59.8x    frame=761220 fps=3596 q=-1.0 size=14406656kB time=03:31:19.54 bitrate=9307.9kbits/s speed=59.9x    frame=763695 fps=3599 q=-1.0 size=14438912kB time=03:32:00.80 bitrate=9298.4kbits/s speed=59.9x    frame=766057 fps=3601 q=-1.0 size=14475264kB time=03:32:40.14 bitrate=9293.1kbits/s speed=  60x    frame=767935 fps=3602 q=-1.0 size=14507520kB time=03:33:11.41 bitrate=9291.0kbits/s speed=  60x    frame=770915 fps=3607 q=-1.0 size=14541056kB time=03:34:01.08 bitrate=9276.5kbits/s speed=60.1x    frame=772594 fps=3607 q=-1.0 size=14575104kB time=03:34:29.05 bitrate=9278.0kbits/s speed=60.1x    frame=775176 fps=3610 q=-1.0 size=14607616kB time=03:35:12.05 bitrate=9267.7kbits/s speed=60.1x    frame=777670 fps=3613 q=-1.0 size=14640128kB time=03:35:53.62 bitrate=9258.6kbits/s speed=60.2x    frame=779712 fps=3615 q=-1.0 size=14675712kB time=03:36:27.64 bitrate=9256.8kbits/s speed=60.2x    frame=782208 fps=3618 q=-1.0 size=14707200kB time=03:37:09.22 bitrate=9247.0kbits/s speed=60.3x    frame=784870 fps=3622 q=-1.0 size=14739456kB time=03:37:53.57 bitrate=9235.9kbits/s speed=60.3x    frame=786514 fps=3621 q=-1.0 size=14772992kB time=03:38:20.95 bitrate=9237.5kbits/s speed=60.3x    frame=788838 fps=3623 q=-1.0 size=14807808kB time=03:38:59.69 bitrate=9232.0kbits/s speed=60.4x    frame=790772 fps=3624 q=-1.0 size=14844928kB time=03:39:31.91 bitrate=9232.5kbits/s speed=60.4x    frame=793739 fps=3629 q=-1.0 size=14882048kB time=03:40:21.34 bitrate=9221.0kbits/s speed=60.4x    frame=796276 fps=3632 q=-1.0 size=14914816kB time=03:41:03.61 bitrate=9211.8kbits/s speed=60.5x    frame=798429 fps=3634 q=-1.0 size=14951424kB time=03:41:39.47 bitrate=9209.5kbits/s speed=60.5x    frame=800333 fps=3634 q=-1.0 size=14987520kB time=03:42:11.17 bitrate=9209.8kbits/s speed=60.5x    frame=802254 fps=3635 q=-1.0 size=15019776kB time=03:42:43.19 bitrate=9207.5kbits/s speed=60.5x    frame=804747 fps=3638 q=-1.0 size=15053312kB time=03:43:24.74 bitrate=9199.5kbits/s speed=60.6x    frame=806600 fps=3638 q=-1.0 size=15087104kB time=03:43:55.58 bitrate=9199.0kbits/s speed=60.6x    frame=808480 fps=3638 q=-1.0 size=15119872kB time=03:44:26.93 bitrate=9197.5kbits/s speed=60.6x    frame=810340 fps=3638 q=-1.0 size=15154176kB time=03:44:57.93 bitrate=9197.2kbits/s speed=60.6x    frame=812248 fps=3639 q=-1.0 size=15190272kB time=03:45:29.71 bitrate=9197.4kbits/s speed=60.6x    frame=814787 fps=3642 q=-1.0 size=15222272kB time=03:46:12.00 bitrate=9188.1kbits/s speed=60.7x    frame=816668 fps=3642 q=-1.0 size=15257088kB time=03:46:43.34 bitrate=9187.9kbits/s speed=60.7x    frame=818551 fps=3642 q=-1.0 size=15291904kB time=03:47:14.70 bitrate=9187.7kbits/s speed=60.7x    frame=820342 fps=3642 q=-1.0 size=15324672kB time=03:47:44.50 bitrate=9187.3kbits/s speed=60.7x    frame=822275 fps=3643 q=-1.0 size=15361536kB time=03:48:16.73 bitrate=9187.7kbits/s speed=60.7x    frame=824248 fps=3644 q=-1.0 size=15396096kB time=03:48:49.61 bitrate=9186.3kbits/s speed=60.7x    frame=826281 fps=3644 q=-1.0 size=15433472kB time=03:49:23.44 bitrate=9186.0kbits/s speed=60.7x    frame=828101 fps=3644 q=-1.0 size=15468032kB time=03:49:53.79 bitrate=9186.3kbits/s speed=60.7x    frame=829850 fps=3644 q=-1.0 size=15501312kB time=03:50:22.92 bitrate=9186.7kbits/s speed=60.7x    frame=831959 fps=3645 q=-1.0 size=15536384kB time=03:50:58.04 bitrate=9184.1kbits/s speed=60.7x    frame=834477 fps=3648 q=-1.0 size=15568128kB time=03:51:40.02 bitrate=9175.1kbits/s speed=60.8x    frame=836961 fps=3651 q=-1.0 size=15603968kB time=03:52:21.41 bitrate=9168.9kbits/s speed=60.8x    frame=839251 fps=3653 q=-1.0 size=15641088kB time=03:52:59.56 bitrate=9165.6kbits/s speed=60.9x    frame=841183 fps=3654 q=-1.0 size=15674112kB time=03:53:31.73 bitrate=9163.9kbits/s speed=60.9x    frame=843552 fps=3656 q=-1.0 size=15710208kB time=03:54:11.19 bitrate=9159.2kbits/s speed=60.9x    frame=846396 fps=3660 q=-1.0 size=15746304kB time=03:54:58.58 bitrate=9149.4kbits/s speed=  61x    frame=848173 fps=3660 q=-1.0 size=15778560kB time=03:55:28.18 bitrate=9148.9kbits/s speed=  61x    frame=850249 fps=3661 q=-1.0 size=15816192kB time=03:56:02.74 bitrate=9148.4kbits/s speed=  61x    frame=852493 fps=3663 q=-1.0 size=15851008kB time=03:56:40.12 bitrate=9144.4kbits/s speed=  61x    frame=854358 fps=3663 q=-1.0 size=15888128kB time=03:57:11.20 bitrate=9145.8kbits/s speed=  61x    frame=856262 fps=3663 q=-1.0 size=15925248kB time=03:57:42.95 bitrate=9146.7kbits/s speed=  61x    frame=858243 fps=3664 q=-1.0 size=15963136kB time=03:58:15.92 bitrate=9147.4kbits/s speed=  61x    frame=860055 fps=3664 q=-1.0 size=15998464kB time=03:58:46.14 bitrate=9148.3kbits/s speed=  61x    frame=861938 fps=3664 q=-1.0 size=16035584kB time=03:59:17.51 bitrate=9149.5kbits/s speed=  61x    frame=863834 fps=3664 q=-1.0 size=16070144kB time=03:59:49.10 bitrate=9149.0kbits/s speed=  61x    frame=865718 fps=3665 q=-1.0 size=16101888kB time=04:00:20.49 bitrate=9147.2kbits/s speed=  61x    frame=867459 fps=3664 q=-1.0 size=16132864kB time=04:00:49.47 bitrate=9146.4kbits/s speed=  61x    frame=869627 fps=3666 q=-1.0 size=16168704kB time=04:01:25.60 bitrate=9143.8kbits/s speed=61.1x    frame=871510 fps=3666 q=-1.0 size=16203008kB time=04:01:56.96 bitrate=9143.4kbits/s speed=61.1x    frame=873805 fps=3668 q=-1.0 size=16238336kB time=04:02:35.19 bitrate=9139.3kbits/s speed=61.1x    frame=875924 fps=3669 q=-1.0 size=16275200kB time=04:03:10.51 bitrate=9137.9kbits/s speed=61.1x    frame=877670 fps=3669 q=-1.0 size=16307712kB time=04:03:39.60 bitrate=9137.9kbits/s speed=61.1x    frame=879455 fps=3668 q=-1.0 size=16342784kB time=04:04:09.30 bitrate=9139.0kbits/s speed=61.1x    frame=881389 fps=3669 q=-1.0 size=16378368kB time=04:04:41.53 bitrate=9138.8kbits/s speed=61.1x    frame=883252 fps=3669 q=-1.0 size=16412160kB time=04:05:12.56 bitrate=9138.3kbits/s speed=61.1x    frame=886579 fps=3675 q=-1.0 size=16446208kB time=04:06:08.01 bitrate=9122.9kbits/s speed=61.2x    frame=888946 fps=3677 q=-1.0 size=16482560kB time=04:06:47.44 bitrate=9118.7kbits/s speed=61.3x    frame=891090 fps=3679 q=-1.0 size=16516608kB time=04:07:23.17 bitrate=9115.6kbits/s speed=61.3x    frame=893323 fps=3680 q=-1.0 size=16552448kB time=04:08:00.38 bitrate=9112.5kbits/s speed=61.3x    frame=895401 fps=3681 q=-1.0 size=16586496kB time=04:08:35.00 bitrate=9110.1kbits/s speed=61.3x    frame=897343 fps=3682 q=-1.0 size=16617216kB time=04:09:07.34 bitrate=9107.2kbits/s speed=61.3x    frame=899546 fps=3683 q=-1.0 size=16653056kB time=04:09:44.05 bitrate=9104.5kbits/s speed=61.3x    frame=902482 fps=3687 q=-1.0 size=16687360kB time=04:10:32.94 bitrate=9093.6kbits/s speed=61.4x    frame=905706 fps=3693 q=-1.0 size=16716544kB time=04:11:26.67 bitrate=9077.0kbits/s speed=61.5x    frame=908855 fps=3698 q=-1.0 size=16748544kB time=04:12:19.13 bitrate=9062.9kbits/s speed=61.6x    frame=911793 fps=3703 q=-1.0 size=16779520kB time=04:13:08.06 bitrate=9050.4kbits/s speed=61.7x    frame=914811 fps=3708 q=-1.0 size=16811264kB time=04:13:58.35 bitrate=9037.6kbits/s speed=61.8x    frame=918001 fps=3713 q=-1.0 size=16843008kB time=04:14:51.47 bitrate=9023.2kbits/s speed=61.8x    frame=921929 fps=3721 q=-1.0 size=16874496kB time=04:15:56.94 bitrate=9001.5kbits/s speed=  62x    frame=923903 fps=3722 q=-1.0 size=16906496kB time=04:16:29.83 bitrate=8999.3kbits/s speed=  62x    frame=927382 fps=3728 q=-1.0 size=16938240kB time=04:17:27.78 bitrate=8982.4kbits/s speed=62.1x    frame=930436 fps=3733 q=-1.0 size=16970240kB time=04:18:18.66 bitrate=8969.8kbits/s speed=62.2x    frame=933627 fps=3738 q=-1.0 size=17000448kB time=04:19:11.83 bitrate=8955.1kbits/s speed=62.3x    frame=936243 fps=3741 q=-1.0 size=17030912kB time=04:19:55.43 bitrate=8946.0kbits/s speed=62.3x    frame=938609 fps=3743 q=-1.0 size=17063936kB time=04:20:34.83 bitrate=8940.8kbits/s speed=62.4x    frame=941160 fps=3746 q=-1.0 size=17097472kB time=04:21:17.34 bitrate=8934.1kbits/s speed=62.4x    frame=943587 fps=3748 q=-1.0 size=17133312kB time=04:21:57.78 bitrate=8929.8kbits/s speed=62.4x    frame=946158 fps=3751 q=-1.0 size=17168384kB time=04:22:40.63 bitrate=8923.7kbits/s speed=62.5x    frame=948559 fps=3753 q=-1.0 size=17201152kB time=04:23:20.63 bitrate=8918.1kbits/s speed=62.5x    frame=951182 fps=3756 q=-1.0 size=17236224kB time=04:24:04.33 bitrate=8911.6kbits/s speed=62.6x    frame=953795 fps=3759 q=-1.0 size=17271808kB time=04:24:47.85 bitrate=8905.6kbits/s speed=62.6x    frame=956366 fps=3762 q=-1.0 size=17303296kB time=04:25:30.66 bitrate=8897.8kbits/s speed=62.7x    frame=958798 fps=3764 q=-1.0 size=17336832kB time=04:26:11.21 bitrate=8892.5kbits/s speed=62.7x    frame=961458 fps=3767 q=-1.0 size=17373184kB time=04:26:55.53 bitrate=8886.4kbits/s speed=62.7x    frame=964195 fps=3770 q=-1.0 size=17404416kB time=04:27:41.10 bitrate=8877.2kbits/s speed=62.8x    frame=967388 fps=3775 q=-1.0 size=17440768kB time=04:28:34.32 bitrate=8866.3kbits/s speed=62.9x    frame=969777 fps=3777 q=-1.0 size=17474048kB time=04:29:14.12 bitrate=8861.4kbits/s speed=62.9x    frame=972502 fps=3780 q=-1.0 size=17508864kB time=04:29:59.51 bitrate=8854.1kbits/s speed=  63x    frame=974977 fps=3783 q=-1.0 size=17546240kB time=04:30:40.74 bitrate=8850.5kbits/s speed=  63x    frame=978103 fps=3787 q=-1.0 size=17580800kB time=04:31:32.82 bitrate=8839.6kbits/s speed=63.1x    frame=980883 fps=3791 q=-1.0 size=17618176kB time=04:32:19.13 bitrate=8833.3kbits/s speed=63.1x    frame=983419 fps=3793 q=-1.0 size=17654272kB time=04:33:01.36 bitrate=8828.6kbits/s speed=63.2x    frame=985793 fps=3795 q=-1.0 size=17688832kB time=04:33:40.94 bitrate=8824.5kbits/s speed=63.2x    frame=988687 fps=3799 q=-1.0 size=17725952kB time=04:34:29.16 bitrate=8817.1kbits/s speed=63.3x    frame=991275 fps=3802 q=-1.0 size=17762048kB time=04:35:12.28 bitrate=8812.0kbits/s speed=63.3x    frame=993594 fps=3803 q=-1.0 size=17794304kB time=04:35:50.87 bitrate=8807.4kbits/s speed=63.4x    frame=995896 fps=3805 q=-1.0 size=17827328kB time=04:36:29.25 bitrate=8803.4kbits/s speed=63.4x    frame=998315 fps=3807 q=-1.0 size=17859584kB time=04:37:09.56 bitrate=8797.9kbits/s speed=63.4x    frame=1000515 fps=3808 q=-1.0 size=17893376kB time=04:37:46.18 bitrate=8795.2kbits/s speed=63.4x    frame=1002523 fps=3808 q=-1.0 size=17923328kB time=04:38:19.65 bitrate=8792.3kbits/s speed=63.4x    frame=1004544 fps=3809 q=-1.0 size=17956352kB time=04:38:53.29 bitrate=8790.8kbits/s speed=63.4x    frame=1006652 fps=3809 q=-1.0 size=17989888kB time=04:39:28.42 bitrate=8788.7kbits/s speed=63.5x    frame=1008612 fps=3810 q=-1.0 size=18020352kB time=04:40:01.07 bitrate=8786.5kbits/s speed=63.5x    frame=1010522 fps=3810 q=-1.0 size=18054656kB time=04:40:32.84 bitrate=8786.6kbits/s speed=63.5x    frame=1012719 fps=3811 q=-1.0 size=18087936kB time=04:41:09.48 bitrate=8783.7kbits/s speed=63.5x    frame=1014792 fps=3811 q=-1.0 size=18120704kB time=04:41:44.00 bitrate=8781.6kbits/s speed=63.5x    frame=1017089 fps=3813 q=-1.0 size=18152192kB time=04:42:22.29 bitrate=8777.0kbits/s speed=63.5x    frame=1019589 fps=3815 q=-1.0 size=18186240kB time=04:43:03.92 bitrate=8771.9kbits/s speed=63.5x    frame=1021857 fps=3816 q=-1.0 size=18217216kB time=04:43:41.71 bitrate=8767.4kbits/s speed=63.6x    frame=1024355 fps=3819 q=-1.0 size=18248704kB time=04:44:23.30 bitrate=8761.1kbits/s speed=63.6x    frame=1026693 fps=3820 q=-1.0 size=18282496kB time=04:45:02.28 bitrate=8757.3kbits/s speed=63.6x    frame=1028870 fps=3821 q=-1.0 size=18315776kB time=04:45:38.55 bitrate=8754.7kbits/s speed=63.7x    frame=1031279 fps=3823 q=-1.0 size=18350080kB time=04:46:18.67 bitrate=8750.6kbits/s speed=63.7x    frame=1033367 fps=3824 q=-1.0 size=18382592kB time=04:46:53.41 bitrate=8748.4kbits/s speed=63.7x    frame=1035581 fps=3825 q=-1.0 size=18415616kB time=04:47:30.33 bitrate=8745.4kbits/s speed=63.7x    frame=1038294 fps=3828 q=-1.0 size=18444288kB time=04:48:15.50 bitrate=8736.1kbits/s speed=63.8x    frame=1040852 fps=3830 q=-1.0 size=18476288kB time=04:48:58.12 bitrate=8729.8kbits/s speed=63.8x    frame=1042708 fps=3830 q=-1.0 size=18510336kB time=04:49:29.04 bitrate=8730.3kbits/s speed=63.8x    frame=1044645 fps=3830 q=-1.0 size=18546176kB time=04:50:01.30 bitrate=8731.0kbits/s speed=63.8x    frame=1046642 fps=3830 q=-1.0 size=18583552kB time=04:50:34.56 bitrate=8731.9kbits/s speed=63.8x    frame=1048424 fps=3830 q=-1.0 size=18618880kB time=04:51:04.24 bitrate=8733.6kbits/s speed=63.8x    frame=1050319 fps=3830 q=-1.0 size=18653696kB time=04:51:35.84 bitrate=8734.1kbits/s speed=63.8x    frame=1052233 fps=3830 q=-1.0 size=18689792kB time=04:52:07.72 bitrate=8735.1kbits/s speed=63.8x    frame=1054541 fps=3831 q=-1.0 size=18724096kB time=04:52:46.15 bitrate=8732.0kbits/s speed=63.8x    frame=1056326 fps=3830 q=-1.0 size=18757376kB time=04:53:15.91 bitrate=8732.7kbits/s speed=63.8x    frame=1057989 fps=3830 q=-1.0 size=18791936kB time=04:53:43.62 bitrate=8735.1kbits/s speed=63.8x    frame=1059677 fps=3829 q=-1.0 size=18824960kB time=04:54:11.74 bitrate=8736.5kbits/s speed=63.8x    frame=1061169 fps=3827 q=-1.0 size=18853120kB time=04:54:36.55 bitrate=8737.3kbits/s speed=63.8x    frame=1062935 fps=3827 q=-1.0 size=18885376kB time=04:55:05.98 bitrate=8737.7kbits/s speed=63.7x    frame=1064827 fps=3827 q=-1.0 size=18920448kB time=04:55:37.49 bitrate=8738.3kbits/s speed=63.7x    frame=1066582 fps=3826 q=-1.0 size=18954752kB time=04:56:06.74 bitrate=8739.8kbits/s speed=63.7x    frame=1068458 fps=3826 q=-1.0 size=18990080kB time=04:56:37.99 bitrate=8740.7kbits/s speed=63.7x    frame=1070411 fps=3826 q=-1.0 size=19026176kB time=04:57:10.54 bitrate=8741.3kbits/s speed=63.7x    frame=1072051 fps=3825 q=-1.0 size=19058688kB time=04:57:37.86 bitrate=8742.9kbits/s speed=63.7x    frame=1073647 fps=3824 q=-1.0 size=19089664kB time=04:58:04.45 bitrate=8744.1kbits/s speed=63.7x    frame=1075397 fps=3823 q=-1.0 size=19124224kB time=04:58:33.60 bitrate=8745.6kbits/s speed=63.7x    frame=1077051 fps=3822 q=-1.0 size=19158272kB time=04:59:01.15 bitrate=8747.7kbits/s speed=63.7x    frame=1078851 fps=3822 q=-1.0 size=19191808kB time=04:59:31.10 bitrate=8748.4kbits/s speed=63.7x    frame=1080582 fps=3821 q=-1.0 size=19225856kB time=04:59:59.97 bitrate=8749.9kbits/s speed=63.7x    frame=1082266 fps=3821 q=-1.0 size=19258624kB time=05:00:28.00 bitrate=8751.2kbits/s speed=63.6x    frame=1086184 fps=3828 q=-1.0 size=19288832kB time=05:01:33.27 bitrate=8733.3kbits/s speed=63.8x    frame=1088317 fps=3828 q=-1.0 size=19321856kB time=05:02:08.83 bitrate=8731.1kbits/s speed=63.8x    frame=1092387 fps=3836 q=-1.0 size=19352832kB time=05:03:16.64 bitrate=8712.5kbits/s speed=63.9x    frame=1094912 fps=3838 q=-1.0 size=19385088kB time=05:03:58.69 bitrate=8706.9kbits/s speed=63.9x    frame=1097192 fps=3839 q=-1.0 size=19421440kB time=05:04:36.67 bitrate=8705.1kbits/s speed=  64x    frame=1099231 fps=3840 q=-1.0 size=19454464kB time=05:05:10.65 bitrate=8703.7kbits/s speed=  64x    frame=1101571 fps=3841 q=-1.0 size=19490560kB time=05:05:49.61 bitrate=8701.4kbits/s speed=  64x    frame=1103909 fps=3843 q=-1.0 size=19526656kB time=05:06:28.58 bitrate=8699.0kbits/s speed=  64x    frame=1105692 fps=3842 q=-1.0 size=19559424kB time=05:06:58.28 bitrate=8699.5kbits/s speed=  64x    frame=1107990 fps=3843 q=-1.0 size=19595520kB time=05:07:36.53 bitrate=8697.5kbits/s speed=  64x    frame=1109993 fps=3844 q=-1.0 size=19631104kB time=05:08:09.91 bitrate=8697.6kbits/s speed=  64x    frame=1111908 fps=3844 q=-1.0 size=19662848kB time=05:08:41.81 bitrate=8696.7kbits/s speed=  64x    frame=1114217 fps=3845 q=-1.0 size=19698944kB time=05:09:20.28 bitrate=8694.6kbits/s speed=  64x    frame=1116267 fps=3845 q=-1.0 size=19736320kB time=05:09:54.44 bitrate=8695.1kbits/s speed=64.1x    frame=1117965 fps=3845 q=-1.0 size=19768320kB time=05:10:22.69 bitrate=8696.0kbits/s speed=  64x    frame=1120013 fps=3845 q=-1.0 size=19804416kB time=05:10:56.83 bitrate=8695.9kbits/s speed=64.1x    frame=1122020 fps=3845 q=-1.0 size=19840768kB time=05:11:30.26 bitrate=8696.3kbits/s speed=64.1x    frame=1123736 fps=3845 q=-1.0 size=19873536kB time=05:11:58.85 bitrate=8697.3kbits/s speed=  64x    frame=1125629 fps=3845 q=-1.0 size=19909888kB time=05:12:30.39 bitrate=8698.6kbits/s speed=  64x    frame=1127306 fps=3844 q=-1.0 size=19943168kB time=05:12:58.30 bitrate=8700.2kbits/s speed=  64x    frame=1129247 fps=3844 q=-1.0 size=19976704kB time=05:13:30.60 bitrate=8699.8kbits/s speed=  64x    frame=1130975 fps=3843 q=-1.0 size=20009472kB time=05:13:59.39 bitrate=8700.8kbits/s speed=  64x    frame=1132719 fps=3842 q=-1.0 size=20043264kB time=05:14:28.47 bitrate=8702.1kbits/s speed=  64x    frame=1134568 fps=3842 q=-1.0 size=20076288kB time=05:14:59.23 bitrate=8702.2kbits/s speed=  64x    frame=1136389 fps=3842 q=-1.0 size=20109568kB time=05:15:29.58 bitrate=8702.7kbits/s speed=  64x    frame=1138030 fps=3841 q=-1.0 size=20141824kB time=05:15:56.90 bitrate=8704.0kbits/s speed=  64x    frame=1139633 fps=3840 q=-1.0 size=20173312kB time=05:16:23.61 bitrate=8705.4kbits/s speed=  64x    frame=1141507 fps=3840 q=-1.0 size=20208128kB time=05:16:54.80 bitrate=8706.1kbits/s speed=  64x    frame=1143428 fps=3840 q=-1.0 size=20239616kB time=05:17:26.80 bitrate=8705.0kbits/s speed=  64x    frame=1145131 fps=3839 q=-1.0 size=20271872kB time=05:17:55.20 bitrate=8705.9kbits/s speed=63.9x    frame=1146861 fps=3838 q=-1.0 size=20306432kB time=05:18:23.97 bitrate=8707.6kbits/s speed=63.9x    frame=1148516 fps=3837 q=-1.0 size=20340224kB time=05:18:51.55 bitrate=8709.5kbits/s speed=63.9x    frame=1150212 fps=3837 q=-1.0 size=20374016kB time=05:19:19.82 bitrate=8711.1kbits/s speed=63.9x    frame=1151995 fps=3836 q=-1.0 size=20408576kB time=05:19:49.51 bitrate=8712.4kbits/s speed=63.9x    frame=1153979 fps=3836 q=-1.0 size=20444160kB time=05:20:22.53 bitrate=8712.6kbits/s speed=63.9x    frame=1155866 fps=3836 q=-1.0 size=20480512kB time=05:20:53.96 bitrate=8713.9kbits/s speed=63.9x    frame=1157814 fps=3836 q=-1.0 size=20516352kB time=05:21:26.42 bitrate=8714.4kbits/s speed=63.9x    frame=1159647 fps=3836 q=-1.0 size=20550912kB time=05:21:56.97 bitrate=8715.3kbits/s speed=63.9x    frame=1161338 fps=3835 q=-1.0 size=20584704kB time=05:22:25.12 bitrate=8716.9kbits/s speed=63.9x    frame=1163155 fps=3835 q=-1.0 size=20618752kB time=05:22:55.41 bitrate=8717.7kbits/s speed=63.9x    frame=1164713 fps=3834 q=-1.0 size=20651264kB time=05:23:21.36 bitrate=8719.8kbits/s speed=63.9x    frame=1166524 fps=3833 q=-1.0 size=20684544kB time=05:23:51.54 bitrate=8720.2kbits/s speed=63.9x    frame=1168252 fps=3833 q=-1.0 size=20720384kB time=05:24:20.32 bitrate=8722.4kbits/s speed=63.8x    frame=1170033 fps=3832 q=-1.0 size=20752640kB time=05:24:49.97 bitrate=8722.7kbits/s speed=63.8x    frame=1171617 fps=3831 q=-1.0 size=20783872kB time=05:25:16.39 bitrate=8724.0kbits/s speed=63.8x    frame=1173478 fps=3831 q=-1.0 size=20817664kB time=05:25:47.39 bitrate=8724.4kbits/s speed=63.8x    frame=1175423 fps=3831 q=-1.0 size=20852224kB time=05:26:19.76 bitrate=8724.4kbits/s speed=63.8x    frame=1177055 fps=3830 q=-1.0 size=20886016kB time=05:26:46.94 bitrate=8726.4kbits/s speed=63.8x    frame=1178807 fps=3830 q=-1.0 size=20917504kB time=05:27:16.16 bitrate=8726.6kbits/s speed=63.8x    frame=1180425 fps=3829 q=-1.0 size=20948224kB time=05:27:43.11 bitrate=8727.4kbits/s speed=63.8x    frame=1182216 fps=3828 q=-1.0 size=20983552kB time=05:28:12.92 bitrate=8728.9kbits/s speed=63.8x    frame=1184064 fps=3828 q=-1.0 size=21017856kB time=05:28:43.71 bitrate=8729.5kbits/s speed=63.8x    frame=1185739 fps=3827 q=-1.0 size=21051136kB time=05:29:11.61 bitrate=8731.0kbits/s speed=63.8x    frame=1187574 fps=3827 q=-1.0 size=21085952kB time=05:29:42.15 bitrate=8731.9kbits/s speed=63.8x    frame=1189515 fps=3827 q=-1.0 size=21121024kB time=05:30:14.52 bitrate=8732.2kbits/s speed=63.8x    frame=1191089 fps=3826 q=-1.0 size=21153536kB time=05:30:40.71 bitrate=8734.0kbits/s speed=63.7x    frame=1192978 fps=3826 q=-1.0 size=21189376kB time=05:31:12.19 bitrate=8735.0kbits/s speed=63.7x    frame=1194895 fps=3826 q=-1.0 size=21223680kB time=05:31:44.14 bitrate=8735.1kbits/s speed=63.7x    frame=1196536 fps=3825 q=-1.0 size=21254656kB time=05:32:11.47 bitrate=8735.8kbits/s speed=63.7x    frame=1198427 fps=3825 q=-1.0 size=21288960kB time=05:32:42.98 bitrate=8736.1kbits/s speed=63.7x    frame=1200596 fps=3826 q=-1.0 size=21327360kB time=05:33:19.10 bitrate=8736.1kbits/s speed=63.7x    frame=1202283 fps=3825 q=-1.0 size=21360384kB time=05:33:47.21 bitrate=8737.3kbits/s speed=63.7x    frame=1204111 fps=3825 q=-1.0 size=21396480kB time=05:34:17.66 bitrate=8738.8kbits/s speed=63.7x    frame=1205795 fps=3824 q=-1.0 size=21431296kB time=05:34:45.70 bitrate=8740.8kbits/s speed=63.7x    frame=1209119 fps=3829 q=-1.0 size=21462272kB time=05:35:41.07 bitrate=8729.4kbits/s speed=63.8x    frame=1210953 fps=3828 q=-1.0 size=21494016kB time=05:36:11.64 bitrate=8729.0kbits/s speed=63.8x    frame=1213835 fps=3831 q=-1.0 size=21529856kB time=05:36:59.67 bitrate=8722.8kbits/s speed=63.8x    frame=1215555 fps=3831 q=-1.0 size=21562368kB time=05:37:28.29 bitrate=8723.6kbits/s speed=63.8x    frame=1217304 fps=3830 q=-1.0 size=21597440kB time=05:37:57.45 bitrate=8725.3kbits/s speed=63.8x    frame=1219927 fps=3832 q=-1.0 size=21630976kB time=05:38:41.16 bitrate=8720.0kbits/s speed=63.8x    frame=1221949 fps=3833 q=-1.0 size=21664768kB time=05:39:14.85 bitrate=8719.2kbits/s speed=63.8x    frame=1224253 fps=3834 q=-1.0 size=21698816kB time=05:39:53.25 bitrate=8716.4kbits/s speed=63.9x    frame=1225929 fps=3833 q=-1.0 size=21733376kB time=05:40:21.17 bitrate=8718.4kbits/s speed=63.9x    frame=1227711 fps=3833 q=-1.0 size=21766912kB time=05:40:50.85 bitrate=8719.2kbits/s speed=63.8x    frame=1229091 fps=3831 q=-1.0 size=21795840kB time=05:41:13.82 bitrate=8721.0kbits/s speed=63.8x    frame=1230743 fps=3830 q=-1.0 size=21829632kB time=05:41:41.36 bitrate=8722.8kbits/s speed=63.8x    frame=1232465 fps=3830 q=-1.0 size=21864448kB time=05:42:10.05 bitrate=8724.5kbits/s speed=63.8x    frame=1234056 fps=3829 q=-1.0 size=21896448kB time=05:42:36.56 bitrate=8726.0kbits/s speed=63.8x    frame=1235805 fps=3828 q=-1.0 size=21932288kB time=05:43:05.73 bitrate=8727.9kbits/s speed=63.8x    frame=1237560 fps=3828 q=-1.0 size=21967616kB time=05:43:34.96 bitrate=8729.5kbits/s speed=63.8x    frame=1239415 fps=3828 q=-1.0 size=22004992kB time=05:44:05.86 bitrate=8731.3kbits/s speed=63.8x    frame=1241130 fps=3827 q=-1.0 size=22039552kB time=05:44:34.41 bitrate=8732.9kbits/s speed=63.7x    frame=1242852 fps=3826 q=-1.0 size=22075648kB time=05:45:03.12 bitrate=8735.1kbits/s speed=63.7x    frame=1244838 fps=3827 q=-1.0 size=22112256kB time=05:45:36.21 bitrate=8735.6kbits/s speed=63.7x    frame=1247419 fps=3829 q=-1.0 size=22145792kB time=05:46:19.21 bitrate=8730.8kbits/s speed=63.8x    frame=1249819 fps=3830 q=-1.0 size=22180352kB time=05:46:59.17 bitrate=8727.6kbits/s speed=63.8x    frame=1251923 fps=3831 q=-1.0 size=22217216kB time=05:47:34.22 bitrate=8727.4kbits/s speed=63.8x    frame=1254478 fps=3833 q=-1.0 size=22249216kB time=05:48:16.79 bitrate=8722.2kbits/s speed=63.8x    frame=1262596 fps=3851 q=-1.0 size=22282752kB time=05:50:31.91 bitrate=8679.2kbits/s speed=64.2x    frame=1270784 fps=3871 q=-1.0 size=22314752kB time=05:52:48.29 bitrate=8635.7kbits/s speed=64.5x    frame=1275331 fps=3878 q=-1.0 size=22346240kB time=05:54:04.00 bitrate=8617.0kbits/s speed=64.6x    frame=1279085 fps=3884 q=-1.0 size=22381056kB time=05:55:06.55 bitrate=8605.1kbits/s speed=64.7x    frame=1283350 fps=3891 q=-1.0 size=22415360kB time=05:56:17.58 bitrate=8589.7kbits/s speed=64.8x    frame=1285832 fps=3893 q=-1.0 size=22450688kB time=05:56:58.91 bitrate=8586.6kbits/s speed=64.8x    frame=1288978 fps=3896 q=-1.0 size=22483200kB time=05:57:51.35 bitrate=8578.1kbits/s speed=64.9x    frame=1291072 fps=3897 q=-1.0 size=22515968kB time=05:58:26.24 bitrate=8576.6kbits/s speed=64.9x    frame=1293707 fps=3899 q=-1.0 size=22549248kB time=05:59:10.13 bitrate=8571.8kbits/s speed=64.9x    frame=1296477 fps=3901 q=-1.0 size=22582272kB time=05:59:56.26 bitrate=8566.0kbits/s speed=  65x    frame=1298792 fps=3902 q=-1.0 size=22617344kB time=06:00:34.80 bitrate=8564.0kbits/s speed=  65x    frame=1301348 fps=3904 q=-1.0 size=22653952kB time=06:01:17.36 bitrate=8561.1kbits/s speed=  65x    frame=1303081 fps=3903 q=-1.0 size=22688000kB time=06:01:46.26 bitrate=8562.5kbits/s speed=  65x    frame=1305874 fps=3906 q=-1.0 size=22723072kB time=06:02:32.78 bitrate=8557.4kbits/s speed=65.1x    frame=1309233 fps=3910 q=-1.0 size=22759168kB time=06:03:28.71 bitrate=8549.0kbits/s speed=65.1x    frame=1311880 fps=3912 q=-1.0 size=22790400kB time=06:04:12.78 bitrate=8543.5kbits/s speed=65.2x    frame=1313604 fps=3912 q=-1.0 size=22822656kB time=06:04:41.52 bitrate=8544.3kbits/s speed=65.2x    frame=1315290 fps=3911 q=-1.0 size=22857728kB time=06:05:09.58 bitrate=8546.5kbits/s speed=65.1x    frame=1317526 fps=3912 q=-1.0 size=22889728kB time=06:05:46.84 bitrate=8543.9kbits/s speed=65.2x    frame=1319268 fps=3911 q=-1.0 size=22924544kB time=06:06:15.88 bitrate=8545.6kbits/s speed=65.1x    frame=1321426 fps=3911 q=-1.0 size=22958336kB time=06:06:51.84 bitrate=8544.3kbits/s speed=65.2x    frame=1323000 fps=3910 q=-1.0 size=22989824kB time=06:07:18.08 bitrate=8545.8kbits/s speed=65.1x    frame=1324709 fps=3910 q=-1.0 size=23024128kB time=06:07:46.55 bitrate=8547.5kbits/s speed=65.1x    frame=1326461 fps=3909 q=-1.0 size=23057920kB time=06:08:15.75 bitrate=8548.7kbits/s speed=65.1x    frame=1328027 fps=3908 q=-1.0 size=23088384kB time=06:08:41.83 bitrate=8549.9kbits/s speed=65.1x    frame=1329518 fps=3907 q=-1.0 size=23118336kB time=06:09:06.67 bitrate=8551.4kbits/s speed=65.1x    frame=1331059 fps=3905 q=-1.0 size=23149568kB time=06:09:32.34 bitrate=8553.1kbits/s speed=65.1x    frame=1332803 fps=3905 q=-1.0 size=23182336kB time=06:10:01.38 bitrate=8554.0kbits/s speed=  65x    frame=1334299 fps=3903 q=-1.0 size=23213568kB time=06:10:26.28 bitrate=8555.9kbits/s speed=  65x    frame=1335991 fps=3903 q=-1.0 size=23247360kB time=06:10:54.48 bitrate=8557.5kbits/s speed=  65x    frame=1337705 fps=3902 q=-1.0 size=23281920kB time=06:11:23.04 bitrate=8559.2kbits/s speed=  65x    frame=1339825 fps=3902 q=-1.0 size=23314944kB time=06:11:58.34 bitrate=8557.8kbits/s speed=  65x    frame=1341526 fps=3902 q=-1.0 size=23350272kB time=06:12:26.69 bitrate=8559.9kbits/s speed=  65x    frame=1343342 fps=3901 q=-1.0 size=23385088kB time=06:12:56.94 bitrate=8561.1kbits/s speed=  65x    frame=1345043 fps=3900 q=-1.0 size=23419392kB time=06:13:25.29 bitrate=8562.8kbits/s speed=  65x    frame=1346979 fps=3900 q=-1.0 size=23456256kB time=06:13:57.52 bitrate=8563.9kbits/s speed=  65x    frame=1348736 fps=3900 q=-1.0 size=23492864kB time=06:14:26.79 bitrate=8566.1kbits/s speed=  65x    frame=1350487 fps=3899 q=-1.0 size=23528192kB time=06:14:55.96 bitrate=8567.9kbits/s speed=  65x    frame=1352901 fps=3901 q=-1.0 size=23561216kB time=06:15:36.18 bitrate=8564.6kbits/s speed=  65x    frame=1354652 fps=3900 q=-1.0 size=23596288kB time=06:16:05.35 bitrate=8566.3kbits/s speed=  65x    frame=1356352 fps=3899 q=-1.0 size=23630592kB time=06:16:33.67 bitrate=8568.0kbits/s speed=  65x    frame=1358157 fps=3899 q=-1.0 size=23667968kB time=06:17:03.73 bitrate=8570.1kbits/s speed=64.9x    frame=1360352 fps=3900 q=-1.0 size=23702016kB time=06:17:40.30 bitrate=8568.6kbits/s speed=  65x    frame=1361995 fps=3899 q=-1.0 size=23734784kB time=06:18:07.71 bitrate=8570.1kbits/s speed=64.9x    frame=1363694 fps=3898 q=-1.0 size=23770112kB time=06:18:35.99 bitrate=8572.1kbits/s speed=64.9x    frame=1365372 fps=3897 q=-1.0 size=23803648kB time=06:19:03.98 bitrate=8573.7kbits/s speed=64.9x    frame=1367172 fps=3897 q=-1.0 size=23841280kB time=06:19:33.95 bitrate=8575.9kbits/s speed=64.9x    frame=1369027 fps=3897 q=-1.0 size=23878400kB time=06:20:04.86 bitrate=8577.6kbits/s speed=64.9x    frame=1370731 fps=3896 q=-1.0 size=23912704kB time=06:20:33.26 bitrate=8579.3kbits/s speed=64.9x    frame=1372401 fps=3895 q=-1.0 size=23947264kB time=06:21:01.04 bitrate=8581.2kbits/s speed=64.9x    frame=1374317 fps=3895 q=-1.0 size=23984128kB time=06:21:32.98 bitrate=8582.5kbits/s speed=64.9x    frame=1375849 fps=3894 q=-1.0 size=24016128kB time=06:21:58.51 bitrate=8584.3kbits/s speed=64.9x    frame=1377626 fps=3893 q=-1.0 size=24050688kB time=06:22:28.09 bitrate=8585.6kbits/s speed=64.9x    frame=1379364 fps=3893 q=-1.0 size=24087040kB time=06:22:57.03 bitrate=8587.7kbits/s speed=64.8x    frame=1381139 fps=3892 q=-1.0 size=24122624kB time=06:23:26.63 bitrate=8589.4kbits/s speed=64.8x    frame=1383040 fps=3892 q=-1.0 size=24158976kB time=06:23:58.30 bitrate=8590.5kbits/s speed=64.8x    frame=1384909 fps=3892 q=-1.0 size=24196352kB time=06:24:29.43 bitrate=8592.2kbits/s speed=64.8x    frame=1386556 fps=3891 q=-1.0 size=24229120kB time=06:24:56.88 bitrate=8593.6kbits/s speed=64.8x    frame=1388438 fps=3891 q=-1.0 size=24265984kB time=06:25:28.21 bitrate=8595.0kbits/s speed=64.8x    frame=1390246 fps=3890 q=-1.0 size=24301824kB time=06:25:58.37 bitrate=8596.5kbits/s speed=64.8x    frame=1391917 fps=3890 q=-1.0 size=24334592kB time=06:26:26.20 bitrate=8597.7kbits/s speed=64.8x    frame=1393641 fps=3889 q=-1.0 size=24368896kB time=06:26:54.92 bitrate=8599.2kbits/s speed=64.8x    frame=1395488 fps=3889 q=-1.0 size=24405248kB time=06:27:25.69 bitrate=8600.6kbits/s speed=64.8x    frame=1397035 fps=3888 q=-1.0 size=24437248kB time=06:27:51.47 bitrate=8602.4kbits/s speed=64.8x    frame=1398825 fps=3887 q=-1.0 size=24472320kB time=06:28:21.26 bitrate=8603.7kbits/s speed=64.8x    frame=1400410 fps=3886 q=-1.0 size=24504064kB time=06:28:47.66 bitrate=8605.1kbits/s speed=64.7x    frame=1402129 fps=3886 q=-1.0 size=24537344kB time=06:29:16.28 bitrate=8606.2kbits/s speed=64.7x    frame=1403689 fps=3885 q=-1.0 size=24570112kB time=06:29:42.28 bitrate=8608.2kbits/s speed=64.7x    frame=1405458 fps=3884 q=-1.0 size=24603648kB time=06:30:11.78 bitrate=8609.0kbits/s speed=64.7x    frame=1407155 fps=3883 q=-1.0 size=24637184kB time=06:30:40.05 bitrate=8610.4kbits/s speed=64.7x    frame=1408878 fps=3883 q=-1.0 size=24670720kB time=06:31:08.75 bitrate=8611.6kbits/s speed=64.7x    frame=1410533 fps=3882 q=-1.0 size=24704000kB time=06:31:36.33 bitrate=8613.1kbits/s speed=64.7x    frame=1412165 fps=3881 q=-1.0 size=24737536kB time=06:32:03.51 bitrate=8614.8kbits/s speed=64.7x    frame=1413789 fps=3880 q=-1.0 size=24771072kB time=06:32:30.56 bitrate=8616.6kbits/s speed=64.6x    frame=1415386 fps=3879 q=-1.0 size=24804352kB time=06:32:57.15 bitrate=8618.4kbits/s speed=64.6x    frame=1417015 fps=3878 q=-1.0 size=24836864kB time=06:33:24.30 bitrate=8619.8kbits/s speed=64.6x    frame=1418735 fps=3878 q=-1.0 size=24869888kB time=06:33:52.95 bitrate=8620.8kbits/s speed=64.6x    frame=1420422 fps=3877 q=-1.0 size=24902656kB time=06:34:21.08 bitrate=8621.9kbits/s speed=64.6x    frame=1422113 fps=3877 q=-1.0 size=24936704kB time=06:34:49.25 bitrate=8623.4kbits/s speed=64.6x    frame=1423741 fps=3876 q=-1.0 size=24970496kB time=06:35:16.38 bitrate=8625.2kbits/s speed=64.6x    frame=1425379 fps=3875 q=-1.0 size=25004544kB time=06:35:43.64 bitrate=8627.0kbits/s speed=64.5x    frame=1427034 fps=3874 q=-1.0 size=25037824kB time=06:36:11.20 bitrate=8628.5kbits/s speed=64.5x    frame=1428705 fps=3873 q=-1.0 size=25071104kB time=06:36:39.06 bitrate=8629.9kbits/s speed=64.5x    frame=1430263 fps=3872 q=-1.0 size=25103616kB time=06:37:05.02 bitrate=8631.6kbits/s speed=64.5x    frame=1431958 fps=3872 q=-1.0 size=25137664kB time=06:37:33.26 bitrate=8633.1kbits/s speed=64.5x    frame=1433839 fps=3872 q=-1.0 size=25171968kB time=06:38:04.62 bitrate=8633.5kbits/s speed=64.5x    frame=1435519 fps=3871 q=-1.0 size=25204736kB time=06:38:32.60 bitrate=8634.7kbits/s speed=64.5x    frame=1437174 fps=3870 q=-1.0 size=25237248kB time=06:39:00.16 bitrate=8635.8kbits/s speed=64.5x    frame=1438807 fps=3869 q=-1.0 size=25271296kB time=06:39:27.39 bitrate=8637.7kbits/s speed=64.5x    frame=1440513 fps=3869 q=-1.0 size=25304320kB time=06:39:55.81 bitrate=8638.7kbits/s speed=64.4x    frame=1442349 fps=3868 q=-1.0 size=25338880kB time=06:40:26.40 bitrate=8639.5kbits/s speed=64.4x    frame=1444109 fps=3868 q=-1.0 size=25372928kB time=06:40:55.70 bitrate=8640.6kbits/s speed=64.4x    frame=1445654 fps=3867 q=-1.0 size=25405184kB time=06:41:21.44 bitrate=8642.3kbits/s speed=64.4x    frame=1447351 fps=3866 q=-1.0 size=25439232kB time=06:41:49.71 bitrate=8643.7kbits/s speed=64.4x    frame=1449160 fps=3866 q=-1.0 size=25473024kB time=06:42:19.84 bitrate=8644.4kbits/s speed=64.4x    frame=1450865 fps=3865 q=-1.0 size=25506816kB time=06:42:48.25 bitrate=8645.7kbits/s speed=64.4x    frame=1452833 fps=3865 q=-1.0 size=25537792kB time=06:43:21.05 bitrate=8644.5kbits/s speed=64.4x    frame=1454463 fps=3865 q=-1.0 size=25571840kB time=06:43:48.17 bitrate=8646.3kbits/s speed=64.4x    frame=1456175 fps=3864 q=-1.0 size=25606400kB time=06:44:16.71 bitrate=8647.8kbits/s speed=64.4x    frame=1457792 fps=3863 q=-1.0 size=25639680kB time=06:44:43.64 bitrate=8649.5kbits/s speed=64.4x    frame=1459512 fps=3863 q=-1.0 size=25674496kB time=06:45:12.28 bitrate=8651.0kbits/s speed=64.3x    frame=1461241 fps=3862 q=-1.0 size=25709056kB time=06:45:41.07 bitrate=8652.4kbits/s speed=64.3x    frame=1462967 fps=3861 q=-1.0 size=25744896kB time=06:46:09.84 bitrate=8654.2kbits/s speed=64.3x    frame=1464696 fps=3861 q=-1.0 size=25779456kB time=06:46:38.63 bitrate=8655.6kbits/s speed=64.3x    frame=1466575 fps=3861 q=-1.0 size=25815808kB time=06:47:09.93 bitrate=8656.7kbits/s speed=64.3x    frame=1468367 fps=3860 q=-1.0 size=25850624kB time=06:47:39.79 bitrate=8657.8kbits/s speed=64.3x    frame=1470696 fps=3861 q=-1.0 size=25886208kB time=06:48:18.57 bitrate=8656.0kbits/s speed=64.3x    frame=1475288 fps=3868 q=-1.0 size=25920000kB time=06:49:35.08 bitrate=8640.3kbits/s speed=64.4x    frame=1478157 fps=3871 q=-1.0 size=25954048kB time=06:50:22.86 bitrate=8634.9kbits/s speed=64.5x    frame=1480006 fps=3871 q=-1.0 size=25987840kB time=06:50:53.68 bitrate=8635.3kbits/s speed=64.5x    frame=1480461 fps=3871 q=-1.0 Lsize=25996313kB time=06:51:01.25 bitrate=8635.5kbits/s speed=64.5x    
video:25357118kB audio:589626kB subtitle:0kB other streams:0kB global headers:0kB muxing overhead: 0.191040%
